<?xml version="1.0" encoding="iso-8859-1"?>
<!-- Generator: Adobe Illustrator 19.0.0, SVG Export Plug-In . SVG Version: 6.00 Build 0)  -->
<svg xmlns="http://www.w3.org/2000/svg" xmlns:xlink="http://www.w3.org/1999/xlink" version="1.1" id="Capa_1" x="0px" y="0px" viewBox="0 0 497.24 497.24" style="enable-background:new 0 0 497.24 497.24;" xml:space="preserve">
<g>
	<g>
		<g>
			<rect x="280.62" y="121.24" width="16" height="16"/>
			<rect x="200.62" y="121.24" width="16" height="16"/>
			<path d="M248.62,169.24c-8.824,0-16-7.176-16-16h-16c0,17.648,14.352,32,32,32s32-14.352,32-32h-16     C264.62,162.064,257.444,169.24,248.62,169.24z"/>
			<path d="M458.796,1.24c-36.832,0-72.76,6.696-106.992,19.776l-2.048-8.192l-38.792,23.272     c-3.192-12.48-10.88-23.496-21.88-30.832L281.196,0l-4.16,2.072C257.212,12,235.012,17.24,212.844,17.24h-5.392     c-10.936,0-21.896,2.584-31.68,7.48c-3.192,1.592-6.192,3.432-9.056,5.432C126.804,11.288,82.612,1.24,38.444,1.24H0.62v143.432     c0,38.616,15.04,74.92,42.344,102.224c12.16,12.16,26.496,22.056,42.112,29.216l-0.424,0.304     c-7.536,5.48-12.032,14.312-12.032,23.624c0,7.456,2.896,14.2,7.512,19.368c-15.344,31.08-23.512,65.68-23.512,100.336v13.496     h31.432c37.248,0,72.264-14.104,99.2-39.6c1.736,0.416,3.512,0.832,5.368,1.24v102.36h48h8h56V394.888     c1.856-0.408,3.632-0.824,5.368-1.24c26.936,25.488,61.952,39.6,99.2,39.6h31.432v-13.496c0-34.664-8.168-69.264-23.512-100.344     c4.616-5.168,7.512-11.912,7.512-19.368c0-9.312-4.496-18.144-12.032-23.616l-0.424-0.312     c15.616-7.152,29.952-17.056,42.112-29.216c27.304-27.312,42.344-63.616,42.344-102.224V1.24H458.796z M366.18,106.016     l-1.4,5.592c-2.048,8.184-7.04,15.272-14.064,19.952c-5.576,3.712-12.064,5.68-18.768,5.68h-3.328v-12.544     C339.06,114.632,352.06,108.136,366.18,106.016z M182.932,39.032c7.568-3.792,16.056-5.792,24.52-5.792h5.392     c23.08,0,46.184-5.112,67.136-14.816l0.232,0.16c10.272,6.848,16.408,18.312,16.408,30.656v14.128l42.656-25.592     c3.544,17.248,5.344,34.84,5.344,52.448v5.232c-5.608,2.272-10.968,5.152-16,8.6V97.24h-22.064     c-19.752,0-38.312-7.688-52.28-21.656l-5.656-5.656l-5.656,5.656c-13.968,13.968-32.528,21.656-52.28,21.656H168.62v6.816     c-5.032-3.448-10.392-6.328-16-8.6v-7.384C152.62,67.168,164.236,48.376,182.932,39.032z M308.684,230.024     c10.96,1.832,21.504,6.256,30.504,12.792l63.992,46.544c3.408,2.472,5.44,6.464,5.44,10.68c0,7.28-5.92,13.2-13.2,13.2h-4.112     c-2.728,0-5.344-0.824-7.576-2.384l-72.512-50.76c-4.184-15.424-18.152-26.856-34.88-26.856c-9.688,0-18.808,3.776-25.656,10.624     l-2.064,2.064l-2.064-2.056c-6.848-6.856-15.968-10.632-25.656-10.632c-16.728,0-30.704,11.432-34.88,26.856l-72.512,50.76     c-2.232,1.56-4.848,2.384-7.576,2.384h-4.112c-7.28,0-13.2-5.92-13.2-13.2c0-4.208,2.032-8.2,5.44-10.68l63.992-46.536     c9-6.536,19.544-10.968,30.504-12.792l36.064-6.016v-10.464c7.584,2.384,15.64,3.688,24,3.688s16.416-1.304,24-3.688v10.464     L308.684,230.024z M248.62,201.24c-35.288,0-64-28.712-64-64v-24h6.064c21.448,0,41.744-7.456,57.936-21.144     c16.192,13.688,36.496,21.144,57.936,21.144h6.064v24C312.62,172.528,283.908,201.24,248.62,201.24z M168.62,124.696v12.544     h-3.328c-6.704,0-13.192-1.968-18.776-5.68c-7.024-4.68-12.016-11.76-14.064-19.952l-1.4-5.592     C145.18,108.136,158.172,114.632,168.62,124.696z M54.276,235.584c-24.28-24.288-37.656-56.576-37.656-90.912V17.24h21.824     c39.6,0,79.224,8.52,115.408,24.584c-10.92,12.6-17.232,28.832-17.232,46.248v2.696c-5.224-0.992-10.568-1.528-16-1.528h-10.248     l6.568,26.248c3.008,12.056,10.368,22.488,20.704,29.376c8.216,5.48,17.784,8.376,27.648,8.376h4.944     c4.624,22.712,18.944,41.888,38.384,53.176v4.048l-22.688,3.784c-13.4,2.232-26.296,7.64-37.288,15.64l-48.424,35.216     C83.036,258.664,67.268,248.568,54.276,235.584z M88.052,417.24H72.636c0.376-30.824,7.704-61.52,21.136-89.272     c2.576,0.744,5.24,1.272,8.048,1.272h4.112c6.024,0,11.816-1.824,16.752-5.28l61.936-43.352v38.512l-35.504,62.136l8.536,3.416     c0.512,0.2,4.576,1.8,11.288,3.92C146.116,407.136,117.868,417.24,88.052,417.24z M240.62,481.24h-32v-83.328     c9.824,1.576,20.608,2.776,32,3.168V481.24z M288.62,481.24h-32v-80.16c11.392-0.392,22.176-1.592,32-3.168V481.24z      M248.62,385.24c-32.904,0-62.232-7.888-76.28-12.384l24.92-43.616h67.36v-16h-64v-43.712c0-11.184,9.104-20.288,20.28-20.288     c5.416,0,10.504,2.112,14.344,5.944l13.376,13.368l13.376-13.368c3.832-3.832,8.928-5.944,14.344-5.944     c11.176,0,20.28,9.104,20.28,20.288v43.712h-16v16h19.36l24.92,43.624C310.892,377.36,281.62,385.24,248.62,385.24z      M424.604,417.248h-15.416v-0.008c-29.816,0-58.064-10.104-80.888-28.648c6.704-2.12,10.776-3.712,11.288-3.92l8.536-3.416     L312.62,319.12v-38.512l61.936,43.36c4.936,3.456,10.728,5.28,16.752,5.28h4.112c2.808,0,5.472-0.528,8.048-1.272     C416.908,355.728,424.236,386.416,424.604,417.248z M480.62,144.672c0,34.336-13.376,66.624-37.656,90.912     c-12.992,12.984-28.76,23.088-45.944,29.512l-48.424-35.216c-10.992-8-23.888-13.4-37.288-15.64l-22.688-3.776v-4.048     c19.44-11.288,33.76-30.464,38.384-53.176h4.944c9.864,0,19.432-2.896,27.648-8.368c10.336-6.888,17.696-17.328,20.704-29.376     l6.568-26.256H376.62c-5.432,0-10.776,0.536-16,1.528v-0.544c0-17.92-1.832-35.816-5.296-53.392     C388.388,23.88,423.14,17.24,458.796,17.24h21.824V144.672z"/>
			<path d="M87.372,222l-9.584,12.824c4.744,3.544,9.824,6.744,15.096,9.512l7.44-14.168C95.804,227.792,91.444,225.04,87.372,222z"/>
			<path d="M48.62,41.248h-16v103.424c0,30.072,11.712,58.344,32.968,79.6L76.9,212.96c-18.232-18.24-28.28-42.496-28.28-68.288     V41.248z"/>
			<path d="M396.916,230.176l7.44,14.168c5.272-2.768,10.352-5.968,15.096-9.512l-9.576-12.824     C405.796,225.048,401.444,227.792,396.916,230.176z"/>
			<path d="M448.62,144.672c0,25.8-10.048,50.048-28.28,68.288l11.312,11.312c21.256-21.256,32.968-49.528,32.968-79.6V41.248h-16     V144.672z"/>
		</g>
	</g>
</g>
<g>
</g>
<g>
</g>
<g>
</g>
<g>
</g>
<g>
</g>
<g>
</g>
<g>
</g>
<g>
</g>
<g>
</g>
<g>
</g>
<g>
</g>
<g>
</g>
<g>
</g>
<g>
</g>
<g>
</g>
</svg>
