<?xml version="1.0" encoding="iso-8859-1"?>
<!-- Generator: Adobe Illustrator 19.0.0, SVG Export Plug-In . SVG Version: 6.00 Build 0)  -->
<svg xmlns="http://www.w3.org/2000/svg" xmlns:xlink="http://www.w3.org/1999/xlink" version="1.1" id="Capa_1" x="0px" y="0px" viewBox="0 0 496 496" style="enable-background:new 0 0 496 496;" xml:space="preserve">
<g>
	<g>
		<g>
			<path d="M399.44,408c17.952,0,32.56-14.608,32.56-32.56c0-6.456-1.888-12.696-5.472-18.064L388.944,301     c9.896-9.808,18.656-20.784,25.912-32.88l4.312-7.184L368,233.376V120C368,53.832,314.168,0,248,0S128,53.832,128,120v113.376     l-51.168,27.552l4.312,7.184c7.256,12.096,16.016,23.072,25.912,32.88l-37.584,56.376C65.888,362.744,64,368.984,64,375.44     C64,393.392,78.608,408,96.56,408h0.504l-25.32,44.304l18.184-4.544c0.272-0.072,28.648-6.832,57.264,14.64     C180.696,487.52,206.136,496,248,496s67.304-8.48,100.8-33.6c28.344-21.256,56.12-14.904,57.264-14.64l18.184,4.544L398.928,408     H399.44z M144,120c0-57.344,46.656-104,104-104s104,46.656,104,104v104.76l-34.712-18.696C328.968,191.128,336,172.392,336,152     v-32c0-10.416-6.712-19.216-16-22.528V80h-16v16h-16V80h-16v16h-16V80h-16v16h-16V80h-16v16h-16V80h-16v17.472     c-9.288,3.312-16,12.112-16,22.528v32c0,20.392,7.032,39.128,18.712,54.064L144,224.76V120z M248,224c-39.704,0-72-32.296-72-72     v-32c0-4.416,3.584-8,8-8h128c4.416,0,8,3.584,8,8v32C320,191.704,287.704,224,248,224z M262.376,238.72l-15.616,27.328     l-14.224-27.496C237.568,239.448,242.72,240,248,240C252.904,240,257.688,239.496,262.376,238.72z M98.096,392H96.56     C87.432,392,80,384.568,80,375.44c0-3.28,0.96-6.464,2.784-9.184l36.256-54.392c7.4,6.04,15.352,11.408,23.744,16.144     l-34.536,60.44C105.344,390.712,101.792,392,98.096,392z M341.048,448.344l-64.824-125.32l-14.216,7.344L327.84,457.64     C302.608,474.36,281.464,480,248,480c-38.352,0-60.512-7.392-91.2-30.4c-20.328-15.248-40.656-18.704-54.28-18.88l88.432-154.752     l-13.888-7.936l-26.344,46.104c-20.56-11.576-38.112-27.656-51.336-47.176l90.728-48.856c6.248,5.48,13.264,10.072,20.88,13.624     l42.888,82.912l14.216-7.344l-12.584-24.32l29.2-51.104c7.728-3.568,14.848-8.216,21.176-13.76l90.728,48.856     c-13.216,19.52-30.776,35.608-51.336,47.176l-26.344-46.104l-13.888,7.936l88.44,154.744     C380.272,430.896,360.752,434.24,341.048,448.344z M387.76,388.448L353.216,328c8.392-4.728,16.344-10.104,23.744-16.144     l36.256,54.392c1.824,2.728,2.784,5.912,2.784,9.192c0,9.136-7.432,16.56-16.56,16.56h-1.528     C394.216,392,390.672,390.712,387.76,388.448z"/>
			<rect x="280" y="136" width="16" height="16"/>
			<rect x="200" y="136" width="16" height="16"/>
			<path d="M248,192c-8.824,0-16-7.176-16-16h-16c0,17.648,14.352,32,32,32s32-14.352,32-32h-16C264,184.824,256.824,192,248,192z"/>
			<path d="M176,360v40h8c22.056,0,40-17.944,40-40v-40h-8C193.944,320,176,337.944,176,360z M208,360     c0,10.432-6.688,19.328-16,22.632V360c0-10.432,6.688-19.328,16-22.632V360z"/>
			<path d="M240,384v40c0,22.056,17.944,40,40,40h8v-40c0-22.056-17.944-40-40-40H240z M256,401.368c9.312,3.304,16,12.2,16,22.632     v22.632c-9.312-3.304-16-12.2-16-22.632V401.368z"/>
		</g>
	</g>
</g>
<g>
</g>
<g>
</g>
<g>
</g>
<g>
</g>
<g>
</g>
<g>
</g>
<g>
</g>
<g>
</g>
<g>
</g>
<g>
</g>
<g>
</g>
<g>
</g>
<g>
</g>
<g>
</g>
<g>
</g>
</svg>
