<?xml version="1.0" encoding="iso-8859-1"?>
<!-- Generator: Adobe Illustrator 19.0.0, SVG Export Plug-In . SVG Version: 6.00 Build 0)  -->
<svg xmlns="http://www.w3.org/2000/svg" xmlns:xlink="http://www.w3.org/1999/xlink" version="1.1" id="Capa_1" x="0px" y="0px" viewBox="0 0 491.312 491.312" style="enable-background:new 0 0 491.312 491.312;" xml:space="preserve">
<g>
	<g>
		<g>
			<path d="M392.968,91.312L380.28,78.624c-12.456-12.456-29.008-19.312-46.624-19.312c-2.416,0-4.752,0.32-7.024,0.832     c5.552-9.792,8.56-20.872,8.56-32.432V9.776h-17.936c-17.616,0-34.168,6.856-46.624,19.312c-0.072,0.072-0.128,0.168-0.2,0.24     c-3.104-6.064-7.128-11.688-12.088-16.64L245.656,0l-12.688,12.688c-4.952,4.952-8.984,10.576-12.088,16.64     c-0.072-0.072-0.128-0.168-0.2-0.24c-12.456-12.456-29.008-19.312-46.624-19.312h-17.944v17.936c0,11.56,3.008,22.64,8.56,32.432     c-2.264-0.512-4.6-0.832-7.016-0.832c-17.616,0-34.168,6.856-46.624,19.312L98.344,91.312L111.032,104     c11.632,11.632,26.856,18.304,43.168,19.144c-2.816,4.76-4.544,10.248-4.544,16.168c0,15.48,11.056,28.424,25.688,31.36     c1.968,9.008,5.592,17.408,10.592,24.816c-16.208,0.896-31.336,7.56-42.912,19.128l-12.68,12.696l11.312,11.312     c-10.192,11.248-16,25.968-16,41.536v63.152c0,14.064,10.464,25.632,24,27.592v54.536l40-24v89.872h48h8h56V401.44l40,24v-54.536     c13.536-1.96,24-13.528,24-27.592v-63.16c0-15.568-5.808-30.288-16-41.536l11.312-11.304l-12.688-12.688     c-11.568-11.568-26.696-18.232-42.912-19.128c5-7.408,8.624-15.808,10.592-24.816c14.64-2.944,25.696-15.888,25.696-31.368     c0-5.92-1.728-11.408-4.544-16.168c16.312-0.84,31.536-7.512,43.168-19.144L392.968,91.312z M272.776,76.104     c5.752,4.848,12.872,7.608,20.48,7.608c3.448,0,6.768-0.68,9.952-1.72c-0.92,2.968-1.552,6.056-1.552,9.32v7.904     c-14.288-0.368-27.896-4.728-39.512-12.624C266.472,83.968,270.104,80.4,272.776,76.104z M289.16,259.904     c1.328-0.352,2.688-0.592,4.096-0.592c4.272,0,8.296,1.664,11.32,4.688c9.432,9.432,14.624,21.976,14.624,35.312v1.944h-0.008     h-1.936c-13.336,0-25.88-5.192-35.312-14.632c-3.024-3.024-4.688-7.04-4.688-11.312c0-1.408,0.24-2.768,0.592-4.096     l21.064,21.064l11.312-11.312L289.16,259.904z M245.656,211.312c-30.88,0-56-25.12-56-56v-40.088     c20.72-0.44,40.296-7.792,56-21.056c15.704,13.264,35.28,20.616,56,21.056v40.088     C301.656,186.192,276.536,211.312,245.656,211.312z M192.408,292.28l21.064-21.064c0.344,1.328,0.584,2.688,0.584,4.096     c0,4.272-1.664,8.288-4.688,11.312c-9.432,9.432-21.976,14.632-35.312,14.632h-1.944v-1.944h0.008     c0-13.336,5.192-25.88,14.624-35.312c4.008-4.008,9.976-5.296,15.312-3.992l-20.96,20.96L192.408,292.28z M181.656,316.776     c12.112-1.384,23.472-6.064,33.048-13.6c2.312,13.248,8.56,25.456,18.264,35.16l8.88,8.88     c-27.592-0.744-50.864-9.192-60.192-13.104V316.776z M229.656,291.712c0-5.896,3.24-11,8-13.776v29.776h16v-29.776     c4.76,2.776,8,7.88,8,13.776c0,13.336-5.192,25.88-14.624,35.312l-1.376,1.376l-1.376-1.376     C234.848,317.592,229.656,305.056,229.656,291.712z M245.656,259.312c-13.232,0-24-10.768-24-24v-12.2     c7.52,2.672,15.576,4.2,24,4.2s16.48-1.528,24-4.2v12.2C269.656,248.544,258.888,259.312,245.656,259.312z M244.28,24     l1.376-1.376L247.032,24c9.432,9.432,14.624,21.976,14.624,35.312c0,5.896-3.24,11-8,13.776V43.312h-16v29.776     c-4.76-2.776-8-7.88-8-13.776C229.656,45.976,234.848,33.432,244.28,24z M229.168,86.592     c-11.616,7.896-25.224,12.256-39.512,12.624v-7.904c0-3.264-0.632-6.352-1.544-9.32c3.184,1.04,6.504,1.72,9.952,1.72     c7.6,0,14.72-2.76,20.472-7.608C221.208,80.4,224.84,83.968,229.168,86.592z M157.656,107.312     c-13.336,0-25.88-5.192-35.312-14.624l-1.376-1.376l1.376-1.376c9.432-9.432,21.976-14.624,35.312-14.624     c5.896,0,11,3.24,13.776,8h-29.776v16h29.776C168.656,104.072,163.552,107.312,157.656,107.312z M173.656,153.088     c-4.76-2.776-8-7.88-8-13.776s3.24-11,8-13.776V153.088z M172.12,27.72v-1.944h1.944c13.336,0,25.88,5.192,35.312,14.624     c3.024,3.024,4.688,7.04,4.688,11.32c0,1.408-0.24,2.768-0.592,4.096l-21.064-21.064l-11.312,11.312l20.96,20.96     c-5.336,1.304-11.304,0.016-15.312-3.992C177.312,53.6,172.12,41.056,172.12,27.72z M154.344,225.936     c9.432-9.432,21.976-14.624,35.312-14.624c5.896,0,11,3.24,13.776,8h-29.776v16h29.776c-2.776,4.76-7.88,8-13.776,8     c-13.336,0-25.88-5.192-35.312-14.624l-1.376-1.376L154.344,225.936z M153.656,355.312c-6.616,0-12-5.384-12-12v-63.16     c0-11.792,4.52-22.912,12.392-31.312c5.472,3.528,11.408,6.2,17.656,7.96c-10.064,11.88-15.584,26.768-15.584,42.512v17.944     h9.536v26.056C165.656,349.928,160.272,355.312,153.656,355.312z M237.656,475.312h-32V421.2l5.808,11.616l26.192-26.192V475.312     z M285.656,475.312h-32v-68.688l26.192,26.192l5.808-11.616V475.312z M325.648,397.184l-35.288-21.176l-14.896,29.8L245.656,376     l-29.808,29.808l-14.896-29.8l-35.296,21.176v-28.68c7.184-3.44,12.608-9.816,14.824-17.6c13.048,5,37.112,12.408,65.176,12.408     c10.88,0,22.168-1.136,33.544-3.368l-3.088-15.704c-9.016,1.776-17.888,2.64-26.544,2.872l8.768-8.768     c9.704-9.704,15.952-21.912,18.264-35.16c9.576,7.536,20.928,12.216,33.048,13.6v17.344c-3.904,1.64-10.176,4.072-18.224,6.4     l4.456,15.368c5.896-1.712,10.928-3.464,14.944-5c2.208,7.784,7.64,14.168,14.824,17.608V397.184z M349.656,280.152v63.16h0     c0,6.616-5.384,12-12,12c-6.616,0-12-5.384-12-12v-26.056h9.536v-17.944c0-15.752-5.52-30.632-15.584-42.512     c6.248-1.76,12.184-4.424,17.656-7.96C345.128,257.24,349.656,268.36,349.656,280.152z M336.968,225.936l1.376,1.376     l-1.376,1.376c-9.432,9.432-21.976,14.624-35.312,14.624c-5.896,0-11-3.24-13.776-8h29.776v-16H287.88     c2.776-4.76,7.88-8,13.776-8C314.992,211.312,327.536,216.504,336.968,225.936z M304.576,63.024     c-4.008,4.008-9.976,5.296-15.312,3.992l20.96-20.96l-11.312-11.312l-21.064,21.064c-0.352-1.328-0.592-2.688-0.592-4.096     c0-4.272,1.664-8.288,4.688-11.312c9.432-9.432,21.976-14.624,35.312-14.624h1.944v1.936     C319.2,41.048,314.008,53.592,304.576,63.024z M317.656,153.088v-27.552c4.76,2.776,8,7.88,8,13.776     S322.416,150.312,317.656,153.088z M368.968,92.688c-9.432,9.432-21.976,14.624-35.312,14.624c-5.896,0-11-3.24-13.776-8h29.776     v-16H319.88c2.776-4.76,7.88-8,13.776-8c13.336,0,25.88,5.192,35.312,14.624l1.376,1.376L368.968,92.688z"/>
			<rect x="269.656" y="131.312" width="16" height="16"/>
			<rect x="205.656" y="131.312" width="16" height="16"/>
			<path d="M245.656,179.312c-8.824,0-16-7.176-16-16h-16c0,17.648,14.352,32,32,32s32-14.352,32-32h-16     C261.656,172.136,254.48,179.312,245.656,179.312z"/>
		</g>
	</g>
</g>
<g>
</g>
<g>
</g>
<g>
</g>
<g>
</g>
<g>
</g>
<g>
</g>
<g>
</g>
<g>
</g>
<g>
</g>
<g>
</g>
<g>
</g>
<g>
</g>
<g>
</g>
<g>
</g>
<g>
</g>
</svg>
