<?xml version="1.0" encoding="iso-8859-1"?>
<!-- Generator: Adobe Illustrator 19.0.0, SVG Export Plug-In . SVG Version: 6.00 Build 0)  -->
<svg xmlns="http://www.w3.org/2000/svg" xmlns:xlink="http://www.w3.org/1999/xlink" version="1.1" id="Capa_1" x="0px" y="0px" viewBox="0 0 495.986 495.986" style="enable-background:new 0 0 495.986 495.986;" xml:space="preserve">
<g>
	<g>
		<g>
			<path d="M425.905,397.578c-13.28-7.592-24.792-18.336-33.272-31.064c-10.88-16.328-16.64-35.328-16.64-54.944v-5.888     c0-16.696,5.168-33.864,14.96-49.664c17.088-27.6,25.736-59.384,25-91.896c-1.976-87.296-71.76-159.28-158.848-163.896     c-46.656-2.36-90.936,13.816-124.712,45.856c-33.792,32.056-52.4,75.352-52.4,121.904c0,30.736,8.456,60.832,24.456,87.056     c10.168,16.68,15.544,34.728,15.544,52.184v4.344c0,19.616-5.76,38.616-16.64,54.944c-8.488,12.728-19.992,23.472-33.272,31.064     l-52.6,30.064l37.704,7.536c35.928,7.184,73.024,3.224,106.4-11.096c-9.2,21.68-22.6,41.6-39.24,58.24l-13.664,13.664h35.76     c42.344,0,80.848-21.112,103.552-55.936c22.704,34.824,61.208,55.936,103.552,55.936h35.76l-13.656-13.656     c-16.64-16.64-30.04-36.568-39.24-58.24c6.928,2.976,14.048,5.512,21.296,7.592l4.424-15.376     c-12.616-3.624-24.784-8.76-36.168-15.264l-18.168-10.392l8.304,24.936c7.808,23.416,20.048,45.376,35.8,64.384     c-40.424-0.6-76.616-23.304-94.744-59.56l-7.16-14.312l-7.16,14.312c-18.128,36.256-54.32,58.96-94.744,59.56     c15.752-19.008,27.992-40.976,35.808-64.392l8.288-24.92l-18.168,10.384c-33.176,18.952-71.896,25.72-109.44,19.248l15.432-8.824     c15.432-8.824,28.8-21.296,38.648-36.08c12.64-18.96,19.328-41.032,19.328-63.824v-4.344c0-20.4-6.184-41.328-17.888-60.512     c-14.456-23.704-22.104-50.928-22.104-78.72c0-42.128,16.832-81.296,47.416-110.296c30.552-28.984,70.552-43.776,112.848-41.488     c78.792,4.168,141.904,69.296,143.696,148.272c0.664,29.416-7.152,58.16-22.608,83.12     c-11.352,18.328-17.352,38.416-17.352,58.088v5.888c0,22.792,6.688,44.856,19.328,63.824     c9.848,14.784,23.216,27.256,38.648,36.08l15.432,8.824c-18.592,3.208-37.424,3.2-56.048-0.032l-2.736,15.768     c22,3.824,44.28,3.544,66.184-0.84l37.704-7.536L425.905,397.578z"/>
			<path d="M199.993,247.986c-13.232,0-24,10.768-24,24c0,39.704,32.296,72,72,72s72-32.296,72-72c0-13.232-10.768-24-24-24H199.993     z M303.993,271.986c0,30.872-25.128,56-56,56s-56-25.128-56-56c0-4.416,3.584-8,8-8h8v24h16v-24h48v24h16v-24h8     C300.409,263.986,303.993,267.57,303.993,271.986z"/>
			<path d="M350.937,155.954l2.264-3.968l-2.264-3.968c-1.352-2.368-32.944-56.048-96.288-59.68     c-2.192-0.232-4.408-0.352-6.656-0.352s-4.464,0.12-6.656,0.352c-63.344,3.632-94.936,57.312-96.288,59.68l-2.264,3.968     l2.264,3.968c1.352,2.368,32.944,56.048,96.288,59.68c2.192,0.232,4.408,0.352,6.656,0.352s4.464-0.12,6.656-0.352     C317.993,212.002,349.585,158.322,350.937,155.954z M191.353,181.682c-15.392-10.744-25.416-23.408-29.824-29.712     c4.4-6.328,14.424-19.04,29.88-29.8c-4.72,8.912-7.416,19.048-7.416,29.816C183.993,162.706,186.673,172.802,191.353,181.682z      M229.833,196.394c-17.488-7.176-29.84-24.368-29.84-44.408s12.352-37.232,29.84-44.408c-5.56,17.312-5.84,40.4-5.84,44.408     S224.273,179.082,229.833,196.394z M247.993,198.618c-3.328-5.392-8-21.536-8-46.632s4.672-41.24,8-46.632     c3.328,5.392,8,21.536,8,46.632S251.321,193.226,247.993,198.618z M266.153,196.394c5.56-17.312,5.84-40.4,5.84-44.408     s-0.28-27.096-5.84-44.408c17.488,7.176,29.84,24.368,29.84,44.408S283.641,189.218,266.153,196.394z M304.577,181.802     c4.72-8.912,7.416-19.048,7.416-29.816c0-10.72-2.68-20.816-7.36-29.696c15.384,10.744,25.416,23.408,29.816,29.712     C330.057,158.33,320.033,171.042,304.577,181.802z"/>
		</g>
	</g>
</g>
<g>
</g>
<g>
</g>
<g>
</g>
<g>
</g>
<g>
</g>
<g>
</g>
<g>
</g>
<g>
</g>
<g>
</g>
<g>
</g>
<g>
</g>
<g>
</g>
<g>
</g>
<g>
</g>
<g>
</g>
</svg>
