<?xml version="1.0" encoding="iso-8859-1"?>
<!-- Generator: Adobe Illustrator 19.0.0, SVG Export Plug-In . SVG Version: 6.00 Build 0)  -->
<svg xmlns="http://www.w3.org/2000/svg" xmlns:xlink="http://www.w3.org/1999/xlink" version="1.1" id="Capa_1" x="0px" y="0px" viewBox="0 0 496 496" style="enable-background:new 0 0 496 496;" xml:space="preserve">
<g>
	<g>
		<g>
			<path d="M424,352h-0.888C433.52,341.824,440,327.664,440,312c0-30.872-25.12-56-56-56h-1.968c-2.216-8.536-6.032-26.344-6.032-48     c0-10.464,3.608-19.48,7.432-29.032C387.64,168.44,392,157.536,392,144c0-31-12.736-49.144-20.328-57.192     C367.6,82.48,361.888,80,356.008,80c-10.792,0-19.912,8.072-21.208,18.776c-2.704,22.376-7.472,45.72-23.92,64.896     c-9.168,10.704-16.48,22.76-21.704,35.848c-6.088,15.224-9.176,31.248-9.176,47.648V256h-80.656     c0.4-1.52,0.704-3.056,1.136-4.568l4.528-15.848c4.336-15.192,7.888-30.568,10.744-46.064l46.472-18.592l-39.288-39.288     c0.328-5.136,0.6-10.272,0.776-15.424l40.472-30.352l-45.688-18.28c-0.648-1.888-1.296-3.768-2.056-5.608l9.352-56.096     l-48.44,9.688C161.896,5.768,143.624,0,124,0C68.856,0,24,44.856,24,100v18.232c0,12.52,1.744,24.984,5.184,37.04l2.984,10.448     c4.584,16.04,12.912,30.448,24.344,42.28H56c0,30.08-7.536,59.984-21.8,86.472L13.176,333.52C4.552,349.52,0,367.592,0,385.776     C0,446.552,49.448,496,110.224,496H424c39.696,0,72-32.296,72-72C496,384.296,463.696,352,424,352z M231.816,90.144l-8.008,6.008     c-0.12-3.216-0.384-6.4-0.808-9.528L231.816,90.144z M221.184,152.496l12.584,12.584l-14.944,5.976     C219.72,164.888,220.52,158.696,221.184,152.496z M296,247.168c0-14.352,2.704-28.384,8.032-41.704     c4.576-11.456,10.976-22.008,19-31.376c19.272-22.48,24.792-49.712,27.656-73.392c0.504-4.168,6.328-6.112,9.336-2.92     C365.992,104.112,376,118.528,376,144c0,10.464-3.608,19.48-7.432,29.032C364.36,183.56,360,194.464,360,208     c0,20.424,3.104,37.632,5.544,48H296V247.168z M384,272c22.056,0,40,17.944,40,40c0,16.384-9.92,30.456-24.048,36.64L368,316.688     L332.688,352h-9.376L288,316.688L252.688,352H232c-2.096,0-4.112-0.304-6.12-0.616L233.76,312H192     c0-13.448,1.352-26.816,3.784-40H384z M380.688,352h-25.376L368,339.312L380.688,352z M300.688,352h-25.376L288,339.312     L300.688,352z M214.24,328l-3.544,17.728c-6.712-4.256-12.088-10.392-15.304-17.728H214.24z M206.2,26.12l-2.328,13.968     c-3.064-4.072-6.376-7.944-10.008-11.504L206.2,26.12z M61.632,271.128c13.904,9.992,30.272,15.752,47.584,16.64     c-2.784,8.064-6.024,15.96-9.84,23.584l-4.256,8.512c-17.296-0.648-33.512-7.2-46.376-18.72     C53.872,291.504,58.168,281.456,61.632,271.128z M66.368,254.624c2.696-11.128,4.48-22.48,5.216-33.928     C82.84,228.024,96.112,232,109.616,232h4.776c1.8,0,3.6-0.088,5.384-0.232c-0.552,13.56-2.528,27.064-5.864,40.232     C96.312,271.992,79.672,265.848,66.368,254.624z M27.256,341.096l13.704-25.44c13.32,10.944,29.344,17.68,46.432,19.664l-0.4,0.8     C82.416,345.272,80,355.512,80,365.752c0,0.76,0.088,1.496,0.112,2.248h-6.176c-18.728,0-36.352-6.984-50.032-19.616     C24.968,345.928,25.992,343.456,27.256,341.096z M71.688,471.664c-15.84-7.136-29.376-18.472-39.128-32.648     c5.08-0.584,10.128-1.408,15.112-2.52l-3.504-15.616c-6.64,1.488-13.408,2.256-20.2,2.68C18.872,411.976,16,399.216,16,385.776     c0-7.072,0.912-14.104,2.48-20.984C34.256,377.2,53.56,384,73.944,384h8.672c1.696,5.896,4.2,11.44,7.36,16.544     c-9.448,6.632-19.672,12.024-30.576,15.928l5.4,15.056c12.568-4.496,24.32-10.76,35.16-18.48     c7.04,6.896,15.616,12.2,25.152,15.424C115,448.04,97.72,462.984,76.6,470.024L71.688,471.664z M149.08,480h-38.864     c-4.736,0-9.36-0.464-13.912-1.144c19.72-10.256,35.496-26.72,44.904-47.112c1.672,0.128,3.336,0.256,5.04,0.256h29.272     C173.392,450.736,163.848,468.088,149.08,480z M218.976,480h-47.16c11.168-13.584,18.072-30.36,19.704-48h40.008     C230.472,448.616,226.288,465.04,218.976,480z M292.52,480c1.944-4.592,3.736-9.248,5.192-14l-15.296-4.672     c-1.952,6.384-4.472,12.656-7.416,18.672h-38.4c6.424-15.2,10.232-31.528,11.16-48h39.888c-0.296,4.728-0.76,9.44-1.576,14.088     l15.76,2.76c0.976-5.552,1.504-11.2,1.816-16.848H312c28.152,0,51.456,20.912,55.36,48H292.52z M424,480h-40.472     c-4-35.944-34.536-64-71.528-64H146.248C118.544,416,96,393.464,96,365.752c0-7.76,1.832-15.528,5.304-22.472l12.384-24.776     c13.92-27.832,21.496-58.848,22.176-89.968c7.944-2.576,15.432-6.528,22.008-11.792C174.48,203.464,184,183.648,184,162.392h-16     c0,16.376-7.336,31.632-20.128,41.864C138.416,211.832,126.52,216,114.384,216h-4.776c-12.136,0-24.024-4.168-33.496-11.752     c-13.824-11.056-23.696-25.896-28.568-42.92l-2.976-10.448C41.536,140.256,40,129.272,40,118.232V100c0-46.32,37.68-84,84-84     c39.032,0,71.84,26.8,81.224,62.944l-0.192,0.488l0.352,0.144C207.032,86.128,208,92.944,208,100     c0,44.376-6.176,88.504-18.368,131.184l-4.528,15.848C179.064,268.16,176,290.016,176,312c0,30.872,25.12,56,56,56h104h48h40     c30.88,0,56,25.128,56,56S454.88,480,424,480z"/>
			<path d="M160,64c-13.232,0-24,10.768-24,24s10.768,24,24,24s24-10.768,24-24S173.232,64,160,64z M160,96c-4.408,0-8-3.584-8-8     s3.592-8,8-8s8,3.584,8,8S164.408,96,160,96z"/>
			<path d="M80,64c-13.232,0-24,10.768-24,24s10.768,24,24,24s24-10.768,24-24S93.232,64,80,64z M80,96c-4.408,0-8-3.584-8-8     s3.592-8,8-8s8,3.584,8,8S84.408,96,80,96z"/>
		</g>
	</g>
</g>
<g>
</g>
<g>
</g>
<g>
</g>
<g>
</g>
<g>
</g>
<g>
</g>
<g>
</g>
<g>
</g>
<g>
</g>
<g>
</g>
<g>
</g>
<g>
</g>
<g>
</g>
<g>
</g>
<g>
</g>
</svg>
