<?xml version="1.0" encoding="iso-8859-1"?>
<!-- Generator: Adobe Illustrator 19.0.0, SVG Export Plug-In . SVG Version: 6.00 Build 0)  -->
<svg xmlns="http://www.w3.org/2000/svg" xmlns:xlink="http://www.w3.org/1999/xlink" version="1.1" id="Capa_1" x="0px" y="0px" viewBox="0 0 496 496" style="enable-background:new 0 0 496 496;" xml:space="preserve">
<g>
	<g>
		<g>
			<path d="M459.2,263.48L256,29.016V0h-16v29.008L36.8,263.48c-3.096,3.568-4.8,8.136-4.8,12.864C32,287.176,40.824,296,51.656,296     c25.744,0,49.728,11.528,65.808,31.632l9.288,11.608l21.264-17.008c12.6-10.08,27.984-16.248,43.984-17.808V344     c0,22.28,13.112,41.504,32,50.52V440c0,30.872,25.128,56,56,56s56-25.128,56-56v-8c0-13.232-10.768-24-24-24s-24,10.768-24,24v8     c0,4.416-3.584,8-8,8c-4.416,0-8-3.584-8-8v-45.48c18.888-9.008,32-28.24,32-50.52v-39.576c16,1.56,31.384,7.728,43.984,17.816     l21.264,17l9.296-11.608C394.616,307.528,418.6,296,444.344,296c10.832,0,19.656-8.824,19.656-19.656     C464,271.616,462.296,267.048,459.2,263.48z M125.824,313.032C106.832,292.032,80.2,280,51.656,280     C49.64,280,48,278.36,48,276.344c0-0.872,0.312-1.728,0.888-2.384L227.92,67.384l-28.624,68.688     C177.576,136.456,160,154.184,160,176c0,11.6,5.04,21.968,12.96,29.288L125.824,313.032z M200,152c13.232,0,24,10.768,24,24     s-10.768,24-24,24s-24-10.768-24-24S186.768,152,200,152z M280,464c13.232,0,24-10.768,24-24v-8c0-4.416,3.584-8,8-8     c4.416,0,8,3.584,8,8v8c0,22.056-17.944,40-40,40c-22.056,0-40-17.944-40-40v-40.64c2.624,0.376,5.28,0.64,8,0.64     c2.72,0,5.376-0.264,8-0.64V440C256,453.232,266.768,464,280,464z M288,344c0,19.312-13.768,35.472-32,39.192V304h-16v79.192     c-18.232-3.72-32-19.872-32-39.192v-88h80V344z M304,288.344V240H192v48.344c-15.736,1.288-30.968,6.392-44.352,14.696     l39.136-89.464c4.16,1.472,8.56,2.424,13.216,2.424c22.056,0,40-17.944,40-40c0-16.608-10.184-30.872-24.624-36.904L248,60.8     l32.624,78.296C266.184,145.136,256,159.392,256,176c0,22.056,17.944,40,40,40c4.656,0,9.056-0.952,13.208-2.416l39.144,89.464     C334.968,294.736,319.736,289.632,304,288.344z M296,152c13.232,0,24,10.768,24,24s-10.768,24-24,24s-24-10.768-24-24     S282.768,152,296,152z M444.344,280c-28.544,0-55.176,12.032-74.168,33.024L323.04,205.288C330.96,197.968,336,187.6,336,176     c0-21.816-17.576-39.544-39.304-39.928l-28.624-68.696l179.04,206.584c0.576,0.656,0.888,1.512,0.888,2.384     C448,278.36,446.36,280,444.344,280z"/>
			<rect x="288" y="168" width="16" height="16"/>
			<rect x="192" y="168" width="16" height="16"/>
			<rect x="240" y="272" width="16" height="16"/>
		</g>
	</g>
</g>
<g>
</g>
<g>
</g>
<g>
</g>
<g>
</g>
<g>
</g>
<g>
</g>
<g>
</g>
<g>
</g>
<g>
</g>
<g>
</g>
<g>
</g>
<g>
</g>
<g>
</g>
<g>
</g>
<g>
</g>
</svg>
