<?xml version="1.0" encoding="iso-8859-1"?>
<!-- Generator: Adobe Illustrator 19.0.0, SVG Export Plug-In . SVG Version: 6.00 Build 0)  -->
<svg xmlns="http://www.w3.org/2000/svg" xmlns:xlink="http://www.w3.org/1999/xlink" version="1.1" id="Capa_1" x="0px" y="0px" viewBox="0 0 496 496" style="enable-background:new 0 0 496 496;" xml:space="preserve">
<g>
	<g>
		<g>
			<path d="M248,0C155.368,0,80,75.368,80,168v203.312l24-24l16,16l16-16l8,8V496h87.064l16-128h1.872l16,128H352V355.312l8-8l16,16     l16-16l24,24V168C416,75.368,340.632,0,248,0z M400,332.688l-8-8l-16,16l-16-16l-8,8V160h-16v320h-56.936l-16-128h-30.128     l-16,128H160V160h-16v172.688l-8-8l-16,16l-16-16l-8,8V168c0-83.816,68.184-152,152-152s152,68.184,152,152V332.688z"/>
			<path d="M312,96c0-13.232-10.768-24-24-24s-24,10.768-24,24s10.768,24,24,24S312,109.232,312,96z M280,96c0-4.416,3.584-8,8-8     c4.416,0,8,3.584,8,8s-3.584,8-8,8C283.584,104,280,100.416,280,96z"/>
			<path d="M208,72c-13.232,0-24,10.768-24,24s10.768,24,24,24s24-10.768,24-24S221.232,72,208,72z M208,104c-4.416,0-8-3.584-8-8     s3.584-8,8-8s8,3.584,8,8S212.416,104,208,104z"/>
			<rect x="176" y="176" width="16" height="16"/>
			<rect x="288" y="168" width="16" height="16"/>
			<rect x="256" y="200" width="16" height="16"/>
			<rect x="192" y="240" width="16" height="16"/>
			<rect x="112" y="200" width="16" height="16"/>
			<rect x="112" y="280" width="16" height="16"/>
			<rect x="368" y="216" width="16" height="16"/>
			<rect x="368" y="264" width="16" height="16"/>
			<rect x="296" y="240" width="16" height="16"/>
			<rect x="184" y="312" width="16" height="16"/>
			<rect x="304" y="296" width="16" height="16"/>
			<rect x="200" y="368" width="16" height="16"/>
			<rect x="280" y="344" width="16" height="16"/>
			<rect x="288" y="432" width="16" height="16"/>
			<rect x="176" y="448" width="16" height="16"/>
			<rect x="240" y="264" width="16" height="16"/>
		</g>
	</g>
</g>
<g>
</g>
<g>
</g>
<g>
</g>
<g>
</g>
<g>
</g>
<g>
</g>
<g>
</g>
<g>
</g>
<g>
</g>
<g>
</g>
<g>
</g>
<g>
</g>
<g>
</g>
<g>
</g>
<g>
</g>
</svg>
