<?xml version="1.0" encoding="iso-8859-1"?>
<!-- Generator: Adobe Illustrator 19.0.0, SVG Export Plug-In . SVG Version: 6.00 Build 0)  -->
<svg xmlns="http://www.w3.org/2000/svg" xmlns:xlink="http://www.w3.org/1999/xlink" version="1.1" id="Capa_1" x="0px" y="0px" viewBox="0 0 496 496" style="enable-background:new 0 0 496 496;" xml:space="preserve">
<g>
	<g>
		<g>
			<path d="M452,408h-10.12c1.792-9.848,4.8-19.48,9.272-28.424c8.408-16.8,12.848-35.624,12.848-54.408v-2.816     c0-35.536-27.832-65.296-62.04-66.328c-21.072-0.544-40.84,9.344-53.2,25.88c-1.536-1.296-3.144-2.496-4.76-3.656V248.68     c0-40.08-32.6-72.68-72.672-72.68c-8.576,0-16.992-2.328-24.344-6.744C232.808,160.752,224,145.2,224,128.68V112     C224,50.24,173.76,0,112,0S0,50.24,0,112v6.312c0,35.216,9.312,69.392,26.904,99.656C15.544,225.12,8,237.688,8,251.752V332     c0,14.064,10.464,25.632,24,27.592V496h54.864l14.608-94.968C102.28,395.8,106.704,392,112,392s9.72,3.8,10.528,9.032     L137.136,496H192v-64h95.192l18.824,64H376v-44.112l1.896,3.04C393.976,480.648,421.672,496,452,496c24.264,0,44-19.744,44-44     C496,427.744,476.264,408,452,408z M36,344c-6.616,0-12-5.384-12-12v-80.248c0-11.864,8.856-22.08,20.608-23.752l25.712-3.68     L96.456,240H64c-13.232,0-24,10.768-24,24v16c0,7.064,3.128,13.36,8,17.76V332C48,338.616,42.616,344,36,344z M112,200     c-35.288,0-64-28.712-64-64v-24h128v24C176,171.288,147.288,200,112,200z M144,209.272v2.2l-32,19.2l-32-19.2v-2.2     c9.808,4.304,20.624,6.728,32,6.728C123.376,216,134.192,213.576,144,209.272z M160,256c4.408,0,8,3.584,8,8v16     c0,4.416-3.592,8-8,8H64c-4.408,0-8-3.584-8-8v-16c0-4.416,3.592-8,8-8H160z M176,480h-25.136l-12.52-81.408     C136.328,385.504,125.248,376,112,376s-24.328,9.504-26.336,22.592L73.136,480H48V357.192     c8.264-3.96,14.232-11.808,15.592-21.192H80v-16H64v-16h96v16H96v16h64.408c1.36,9.384,7.328,17.232,15.592,21.192V480z M188,344     c-6.616,0-12-5.384-12-12v-34.24c4.872-4.392,8-10.696,8-17.76v-16c0-13.232-10.768-24-24-24h-32.456l26.128-15.68l25.72,3.68     C191.144,229.672,200,239.88,200,251.752V332C200,338.616,194.616,344,188,344z M360,376v22.264V480h-42.016l-38.312-130.256     l-15.352,4.512L282.488,416H192v-56.408c13.536-1.96,24-13.528,24-27.592v-52h16v-16h-16v-12.248     c0-19.776-14.768-36.8-34.336-39.592L160,209.064V200h-0.208C179.296,185.4,192,162.184,192,136v-24V96V80h-16v16h-24V80h-16v16     H88V80H72v16H48V80H32v16v16v24c0,26.184,12.704,49.4,32.208,64H64v9.064l-21.656,3.096c-0.072,0.008-0.136,0.04-0.208,0.048     C25.08,183.832,16,151.576,16,118.312V112c0-52.936,43.064-96,96-96c52.936,0,96,43.064,96,96v16.68     c0,22.112,11.784,42.912,30.744,54.296c9.84,5.904,21.104,9.024,32.584,9.024C302.576,192,328,217.432,328,248.68v20.76     c-8.88-3.544-18.432-5.44-28.288-5.44H248v16h51.712c16.104,0,31.24,6.272,42.632,17.656C353.728,309.048,360,324.176,360,340.28     V376z M452,480c-24.776,0-47.408-12.544-60.536-33.544l-3.04-4.872C380.296,428.576,376,413.6,376,398.264V376v-35.72     c0-17.152-5.68-33.4-16.056-46.712c9.08-13.752,24.696-22.088,41.536-21.544c25.656,0.768,46.52,23.344,46.52,50.328v2.816     c0,16.32-3.856,32.664-11.16,47.256c-8.4,16.8-12.84,35.624-12.84,54.408V448h16v-21.168c0-0.944,0.144-1.888,0.168-2.832H452     c15.44,0,28,12.56,28,28S467.44,480,452,480z"/>
			<rect x="320" y="320" width="16" height="16"/>
			<rect x="280" y="296" width="16" height="16"/>
			<rect x="232" y="328" width="16" height="16"/>
			<rect x="144" y="376" width="16" height="16"/>
			<rect x="104" y="352" width="16" height="16"/>
			<rect x="64" y="376" width="16" height="16"/>
			<rect x="312" y="392" width="16" height="16"/>
			<rect x="208" y="384" width="16" height="16"/>
			<rect x="144" y="128" width="16" height="16"/>
			<rect x="64" y="128" width="16" height="16"/>
			<rect x="104" y="168" width="16" height="16"/>
		</g>
	</g>
</g>
<g>
</g>
<g>
</g>
<g>
</g>
<g>
</g>
<g>
</g>
<g>
</g>
<g>
</g>
<g>
</g>
<g>
</g>
<g>
</g>
<g>
</g>
<g>
</g>
<g>
</g>
<g>
</g>
<g>
</g>
</svg>
