<?xml version="1.0" encoding="iso-8859-1"?>
<!-- Generator: Adobe Illustrator 19.0.0, SVG Export Plug-In . SVG Version: 6.00 Build 0)  -->
<svg xmlns="http://www.w3.org/2000/svg" xmlns:xlink="http://www.w3.org/1999/xlink" version="1.1" id="Capa_1" x="0px" y="0px" viewBox="0 0 496 496" style="enable-background:new 0 0 496 496;" xml:space="preserve">
<g>
	<g>
		<g>
			<rect x="288" y="96" width="16" height="16"/>
			<rect x="192" y="96" width="16" height="16"/>
			<path d="M369.464,164.128l-31.664-7.92c2.296-3.928,4.4-7.976,6.176-12.208H344v-0.064c5.136-12.304,8-25.792,8-39.936     s-2.864-27.632-8-39.936V64h-0.024C328.272,26.456,291.176,0,248,0c-43.176,0-80.272,26.456-95.976,64H152v0.064     c-5.136,12.304-8,25.792-8,39.936s2.864,27.632,8,39.936V144h0.024c1.536,3.664,3.296,7.2,5.224,10.64l-32.192,8.784     C93.816,171.944,72,200.504,72,232.88V352h64v144h96V384c0-8.824,7.176-16,16-16c8.824,0,16,7.176,16,16v112h96V352h64V233.968     C424,200.864,401.576,172.144,369.464,164.128z M283.68,23.632c18.4,8.2,33.448,22.512,42.608,40.368h-18.976l-32-32     L283.68,23.632z M284.688,64h-41.376L264,43.312L284.688,64z M248,16c6.408,0,12.632,0.728,18.656,2.032L240,44.688l-22.96-22.96     C226.688,18.088,237.096,16,248,16z M201.88,29.192L228.688,56l-8,8h-50.976C177.072,49.664,188.24,37.64,201.88,29.192z      M163.408,80h169.176C334.76,87.64,336,95.672,336,104s-1.24,16.36-3.408,24H224v16h102.288c-14.6,28.448-44.168,48-78.288,48     s-63.688-19.552-78.288-48H208v-16h-44.592c-2.168-7.64-3.408-15.672-3.408-24S161.24,87.64,163.408,80z M88,275.312L112.688,300     L88,324.688V275.312z M136,336H99.312L124,311.312l12,12V336z M216,428.68l-19.512,19.512l11.312,11.312l8.2-8.192V480h-28.688     l9.728-9.728l-11.312-11.312L164.688,480H152v-68.688l36-36l28,28V428.68z M152,388.688V344v-4.688L176.688,364L152,388.688z      M344,480h-64v-12.688l52-52l12,12V480z M408,336h-48v-28.688l48-48V336z M408.008,236.688l-48,48V248h-16v68.688L333.68,306.36     l-11.312,11.312L344,339.312V344v60.688l-190.48-190.48l-11.312,11.312L320.688,404L280,444.688V384c0-17.648-14.352-32-32-32     c-16.616,0-30.152,12.776-31.696,28.992L152,316.688V248h-16v52.688l-48-48V232.88c0-16.576,7.448-31.76,19.4-42.168l24,24     l11.312-11.312l-21.584-21.584c2.608-1.168,5.304-2.192,8.128-2.968l37.416-10.208c9.624,12.08,21.888,21.92,35.904,28.76     l-0.24,0.24l109.84,109.84l11.312-11.312L295.312,268l58.512-58.512l-11.312-11.312L284,256.688l-49.696-49.696     C238.8,207.584,243.344,208,248,208c32.184,0,60.992-14.704,80.088-37.736l33.872,8.464l-8.136,8.136l11.312,11.312     l13.352-13.352c17.816,9.584,29.52,28.144,29.52,49.144V236.688z"/>
		</g>
	</g>
</g>
<g>
</g>
<g>
</g>
<g>
</g>
<g>
</g>
<g>
</g>
<g>
</g>
<g>
</g>
<g>
</g>
<g>
</g>
<g>
</g>
<g>
</g>
<g>
</g>
<g>
</g>
<g>
</g>
<g>
</g>
</svg>
