<?xml version="1.0" encoding="iso-8859-1"?>
<!-- Generator: Adobe Illustrator 19.0.0, SVG Export Plug-In . SVG Version: 6.00 Build 0)  -->
<svg xmlns="http://www.w3.org/2000/svg" xmlns:xlink="http://www.w3.org/1999/xlink" version="1.1" id="Capa_1" x="0px" y="0px" viewBox="0 0 496 496" style="enable-background:new 0 0 496 496;" xml:space="preserve">
<g>
	<g>
		<g>
			<path d="M388.44,465.344c-27.296-18.2-47.936-61.576-56.264-95.744l38.552,46.616l4.56-13.68     c10.888-32.664,16.408-66.688,16.408-101.128V283.24c0-13.832-3.712-27.44-10.736-39.36c-3.6-6.104-7.984-11.584-12.968-16.4V120     c0-66.168-53.832-120-120-120S128,53.832,128,120v107.48c-4.984,4.816-9.376,10.296-12.976,16.4     c-7.016,11.92-10.728,25.528-10.728,39.36v18.168c0,34.44,5.52,68.464,16.408,101.128l4.56,13.68l38.552-46.616     c-8.328,34.168-28.96,77.544-56.264,95.744l-5.872,3.92l3.16,6.32C105.888,477.664,116.32,496,160,496     c21.136,0,32.424-6.184,43.344-12.168C214.456,477.752,224.952,472,248,472c23.048,0,33.544,5.752,44.656,11.832     C303.576,489.816,314.864,496,336,496c43.68,0,54.112-18.336,55.16-20.424l3.16-6.32L388.44,465.344z M144.008,120     C144,62.656,190.656,16,248,16s104,46.656,104,104v95.648c-5.16-2.88-10.64-5.256-16.44-6.92l-23.928-6.864     c-0.96-5.52-4.016-10.28-8.32-13.504C323.224,172.208,336,147.576,336,120V88h-16h-14.056c-19.312,0-37.616-10.224-51.544-28.8     l-6.4-8.536l-6.4,8.536C227.672,77.776,209.368,88,190.056,88H176h-16v32c0,27.576,12.776,52.208,32.696,68.352     c-4.304,3.232-7.36,7.992-8.32,13.504l-23.928,6.864c-5.8,1.664-11.28,4.04-16.44,6.92V120z M248,192c-39.696,0-72-32.304-72-72     v-16h14.056c21.184,0,41.856-9.904,57.944-27.48C264.088,94.096,284.76,104,305.944,104H320v16C320,159.696,287.696,192,248,192z      M296,205.544v36.912c0,3.512-3.512,6.224-6.912,5.368L256,227.52v-7.04l33.08-20.304C292.496,199.32,296,202.024,296,205.544z      M240,220.48v7.048l-33.088,20.304c-3.408,0.848-6.912-1.864-6.912-5.376v-36.912c0-3.056,2.488-5.544,5.544-5.544     c0.464,0,0.928,0.056,1.376,0.168L240,220.48z M160,293.768V296v53.12l-28.408,34.344c-7.504-26.704-11.296-54.24-11.296-82.064     v-18.168c0-10.976,2.944-21.776,8.512-31.232c8.032-13.632,20.832-23.536,36.04-27.896L184,218.616v23.84     c0,11.88,9.664,21.544,21.544,21.544c2.592,0,5.136-0.464,7.56-1.376l34.864-21.256l33.544,20.584l1.368,0.664     c2.44,0.92,4.984,1.384,7.576,1.384c11.88,0,21.544-9.664,21.544-21.544v-23.84l19.144,5.488     c15.208,4.36,28.008,14.264,36.04,27.896c5.576,9.456,8.52,20.256,8.52,31.232V301.4c0,27.824-3.792,55.36-11.296,82.064     L336,349.12V296v-2.232l18.528-6.176l-5.064-15.176L320,282.232V296h-16.752c-11.368-19.536-32.432-32-55.248-32     s-43.88,12.456-55.248,32H176v-13.768l-29.472-9.824l-5.064,15.176L160,293.768z M224,312c8.824,0,16,7.176,16,16     c0,8.824-7.176,16-16,16h-48v-32H224z M212.264,296c8.992-9.984,21.968-16,35.736-16c13.776,0,26.752,6.016,35.744,16H272     c-9.6,0-18.128,4.336-24,11.056c-5.872-6.72-14.4-11.056-24-11.056H212.264z M224,360c9.6,0,18.128-4.336,24-11.056     c5.872,6.72,14.4,11.056,24,11.056h11.736c-8.992,9.984-21.968,16-35.736,16c-13.776,0-26.752-6.016-35.736-16H224z M272,344     c-8.824,0-16-7.176-16-16c0-8.824,7.176-16,16-16h48v32H272z M336,480c-17.04,0-25.664-4.728-35.664-10.192     C288.528,463.336,275.144,456,248,456c-27.144,0-40.528,7.336-52.336,13.808C185.664,475.272,177.04,480,160,480     c-19.456,0-30.144-4-35.656-7.304c28-23.6,48.056-67.608,55.984-103.28l2.088-9.416h10.336c11.368,19.536,32.432,32,55.248,32     c22.816,0,43.88-12.456,55.248-32h10.336l2.096,9.416c7.92,35.664,27.968,79.648,55.952,103.256     C366.072,476.024,355.384,480,336,480z"/>
			<rect x="288" y="112" width="16" height="16"/>
			<rect x="192" y="112" width="16" height="16"/>
			<path d="M248,168c-13.232,0-24-10.768-24-24h-16c0,22.056,17.944,40,40,40c22.056,0,40-17.944,40-40h-16     C272,157.232,261.232,168,248,168z"/>
		</g>
	</g>
</g>
<g>
</g>
<g>
</g>
<g>
</g>
<g>
</g>
<g>
</g>
<g>
</g>
<g>
</g>
<g>
</g>
<g>
</g>
<g>
</g>
<g>
</g>
<g>
</g>
<g>
</g>
<g>
</g>
<g>
</g>
</svg>
