<?xml version="1.0" encoding="iso-8859-1"?>
<!-- Generator: Adobe Illustrator 19.0.0, SVG Export Plug-In . SVG Version: 6.00 Build 0)  -->
<svg xmlns="http://www.w3.org/2000/svg" xmlns:xlink="http://www.w3.org/1999/xlink" version="1.1" id="Capa_1" x="0px" y="0px" viewBox="0 0 496 496" style="enable-background:new 0 0 496 496;" xml:space="preserve">
<g>
	<g>
		<g>
			<rect x="329.24" y="104" width="16" height="16"/>
			<rect x="249.24" y="104" width="16" height="16"/>
			<rect x="273.24" y="168" width="48" height="16"/>
			<path d="M464.264,275.72l-74.056-74.064c0.384-0.904,0.84-1.768,1.152-2.72c1.248-3.744,1.88-7.64,1.88-11.584v-39.8     c9.52-5.552,16-15.76,16-27.552V88c0-48.52-39.48-88-88-88h-48c-48.52,0-88,39.48-88,88v32c0,11.792,6.48,22,16,27.552v14.496     l-46.672,14c-16.016,4.816-30.328,14.112-41.216,26.64c-10.424-12.816-23.504-23.328-38.336-30.744l-52.256-26.12l7.28,43.608     c7.408,44.464,31.28,83.448,67.2,110.424V352c0,79.4,64.6,144,144,144s144-64.6,144-144v-35.056V312v-28.688l35.72,35.72     c5.784,5.784,13.472,8.968,21.648,8.968c16.896,0,30.632-13.744,30.632-30.624C473.24,289.184,470.056,281.504,464.264,275.72z      M384.936,133.936c0.136-1.968,0.304-3.928,0.304-5.936v-21.776c4.76,2.776,8,7.88,8,13.776     C393.24,126.016,389.864,131.208,384.936,133.936z M201.24,88c0-39.704,32.304-72,72-72h48c39.696,0,72,32.296,72,72v4.448     c-2.48-1.448-5.152-2.576-8-3.312V72h-30.056c-19.752,0-38.328-7.688-52.288-21.656l-5.656-5.656l-5.656,5.656     C277.616,64.312,259.048,72,239.296,72H209.24v17.136c-2.848,0.744-5.52,1.864-8,3.312V88z M297.24,200     c-16.408,0-31.504-5.576-43.624-14.856L270.184,152h54.112l16.568,33.144C328.744,194.424,313.648,200,297.24,200z      M312.848,214.528c-0.912,14.816-4.728,29.456-11.528,42.664c-1.4,2.736-6.76,2.744-8.168-0.008     c-6.792-13.2-10.608-27.84-11.52-42.656c5.072,0.92,10.272,1.472,15.608,1.472S307.776,215.448,312.848,214.528z M269.624,240     h-1.072c-5.16,0-10.008-2.008-13.656-5.656c-3.648-3.648-5.656-8.504-5.656-13.656v-19.024c5.04,3.296,10.44,6.056,16.12,8.272     C265.52,220.088,266.992,230.192,269.624,240z M329.12,209.928c5.68-2.216,11.08-4.976,16.12-8.272v19.024     c0,5.16-2.008,10.008-5.664,13.656c-3.64,3.656-8.488,5.664-13.648,5.664h-1.072C327.488,230.192,328.96,220.088,329.12,209.928z      M338.608,144.84c-2.728-5.448-8.208-8.84-14.312-8.84h-54.112c-6.104,0-11.584,3.392-14.312,8.84l-14.344,28.696     C231.36,161.12,225.24,145.264,225.24,128V88h14.056c21.448,0,41.752-7.456,57.944-21.144C313.432,80.544,333.736,88,355.184,88     h14.056v40c0,17.264-6.12,33.12-16.288,45.536L338.608,144.84z M233.24,188.216v19.2c-6.896-1.6-12.632-6.6-14.944-13.528     c-0.704-2.112-1.056-4.312-1.056-6.536v-18.28l0.808-2.952C221.984,174.264,227.112,181.704,233.24,188.216z M361.24,188.208     c6.552-6.96,11.976-14.968,16-23.768v22.904c0,2.224-0.352,4.424-1.056,6.528c-2.312,6.928-8.048,11.936-14.944,13.528V188.208z      M209.24,106.224V128c0,2.008,0.168,3.968,0.304,5.936c-4.928-2.728-8.304-7.92-8.304-13.936     C201.24,114.104,204.48,109,209.24,106.224z M97.24,276.416v3.024c-27.296-23.976-45.376-56.32-51.424-92.632l-2.096-12.632     l24.144,12.08c15.64,7.824,29.024,19.64,38.72,34.176l6.656,9.992l6.656-9.984c9.28-13.928,23.232-24.248,39.272-29.064     l38.56-11.568l-2.104,7.704c-9.656,35.408-29.8,67.176-57.368,91.128l-0.248-3.616C137.28,264.352,128.336,256,117.648,256     C106.4,256,97.24,265.16,97.24,276.416z M197.24,352c2.632,0,5.136-0.48,7.552-1.168C199.032,361.024,188.224,368,175.704,368     c-17.416,0-32.104-13.6-33.432-30.896l-2.68-39.056c10.84-8.352,20.784-17.712,29.648-28.008V324     C169.24,339.44,181.8,352,197.24,352z M369.24,352c0,70.576-57.424,128-128,128s-128-57.424-128-128v-75.584     c0-2.44,1.976-4.416,4.408-4.416c2.312,0,4.24,1.808,4.4,4.112l4.264,62.16C128.288,363.904,149.984,384,175.704,384     c27.312,0,49.536-22.224,49.536-49.536v-9.52l7.8,3.896c19.824,9.92,42.024,15.16,64.2,15.16c22.176,0,44.376-5.24,64.2-15.16     l7.8-3.896V352z M442.608,312c-3.904,0-7.584-1.52-10.344-4.28l-63.024-63.032v62.368l-14.96,7.48     c-35.224,17.624-78.856,17.624-114.088,0l-14.952-7.48V304v-64h-16v64v8v4.944V324c0,6.616-5.384,12-12,12     c-6.616,0-12-5.384-12-12v-75.312c8.688-13.304,15.88-27.576,21.24-42.64c5.776,9.712,15.704,16.248,27.048,17.608     c0.696,8.296,4.096,16.04,10.048,22c6.672,6.672,15.536,10.344,24.976,10.344h6.624c1.208,2.856,2.328,5.752,3.752,8.504     c3.464,6.744,10.48,10.928,18.32,10.928c7.84,0,14.856-4.184,18.312-10.92c1.416-2.76,2.544-5.656,3.752-8.512h6.624     c9.44,0,18.304-3.672,24.976-10.344c5.952-5.96,9.352-13.704,10.048-22c7.464-0.896,14.304-4.032,19.784-8.848l72.224,72.224     c2.712,2.728,4.272,6.488,4.272,10.344C457.24,305.44,450.68,312,442.608,312z"/>
			<rect x="241.24" y="272" width="16" height="16"/>
			<rect x="337.24" y="272" width="16" height="16"/>
			<path d="M241.24,392c8.472,0,16.336-3.864,22.16-10.896l-12.32-10.2c-5.456,6.576-14.224,6.576-19.68,0l-12.32,10.2     C224.904,388.136,232.768,392,241.24,392z"/>
			<path d="M319.4,370.896l-12.32,10.2c5.824,7.04,13.688,10.904,22.16,10.904s16.336-3.864,22.16-10.896l-12.32-10.2     C333.624,377.48,324.856,377.48,319.4,370.896z"/>
			<path d="M271.4,410.896l-12.32,10.2c5.824,7.04,13.688,10.904,22.16,10.904s16.336-3.864,22.16-10.896l-12.32-10.2     C285.624,417.48,276.856,417.48,271.4,410.896z"/>
			<path d="M167.4,402.896l-12.32,10.2c5.824,7.04,13.688,10.904,22.16,10.904s16.336-3.864,22.16-10.896l-12.32-10.2     C181.624,409.48,172.856,409.48,167.4,402.896z"/>
			<path d="M215.4,442.896l-12.32,10.2c5.824,7.04,13.688,10.904,22.16,10.904s16.336-3.864,22.16-10.896l-12.32-10.2     C229.624,449.48,220.856,449.48,215.4,442.896z"/>
		</g>
	</g>
</g>
<g>
</g>
<g>
</g>
<g>
</g>
<g>
</g>
<g>
</g>
<g>
</g>
<g>
</g>
<g>
</g>
<g>
</g>
<g>
</g>
<g>
</g>
<g>
</g>
<g>
</g>
<g>
</g>
<g>
</g>
</svg>
