<?xml version="1.0" encoding="iso-8859-1"?>
<!-- Generator: Adobe Illustrator 19.0.0, SVG Export Plug-In . SVG Version: 6.00 Build 0)  -->
<svg xmlns="http://www.w3.org/2000/svg" xmlns:xlink="http://www.w3.org/1999/xlink" version="1.1" id="Capa_1" x="0px" y="0px" viewBox="0 0 496 496" style="enable-background:new 0 0 496 496;" xml:space="preserve">
<g>
	<g>
		<g>
			<rect x="272" y="120" width="16" height="16"/>
			<rect x="208" y="120" width="16" height="16"/>
			<path d="M463.32,416h27.992l-19.64-19.64C458.544,383.224,441.088,376,422.52,376c-10.728,0-21.48,2.536-31.088,7.336     l-4.704,2.352c-6.72,3.376-14.752,3.36-21.472,0c-8.168-4.096-13.256-12.32-13.256-21.464c0-13.952-1.392-27.96-4.128-41.624     l-2.016-10.104c29.696,5.344,57.864,15.864,83.752,31.4l22.488,13.488c2.952,1.776,6.208,2.664,9.48,2.664     c3.112,0,6.216-0.816,9.08-2.424c5.84-3.32,9.344-9.312,9.344-16.048c0-6.176-3.072-11.904-8.808-15.728     C461.68,319.504,456,308.888,456,297.456c0-9.12,3.552-17.688,10-24.144L483.312,256l-17.704-17.712     c-6.192-6.192-9.608-14.424-9.608-23.184c0-11.456,6.104-22.232,15.92-28.128l15.232-9.136c5.456-3.28,8.848-9.264,8.848-15.624     c0-10.048-8.168-18.216-18.216-18.216c-42.064,0-82.512,12.752-116.984,36.872l-26.16,18.312     c-3.072-1.216-6.264-2.208-9.68-2.632L296,192.936v-3.424c11-9.88,18.968-23.048,22.264-37.984     c20.096-2.264,37.392-15.136,45.048-34.272L371.824,96H347.68C355.312,87.496,360,76.304,360,64     c0-27.84-23.56-50.568-52.168-47.8C298.76,5.976,285.696,0,272,0c-8.464,0-16.656,2.256-24,6.568C240.656,2.256,232.464,0,224,0     c-13.696,0-26.76,5.976-35.832,16.2C186.76,16.064,185.376,16,184,16c-26.472,0-48,21.528-48,48c0,12.304,4.688,23.496,12.32,32     h-24.144l8.504,21.264c7.656,19.128,24.952,32.008,45.048,34.272c3.304,14.936,11.264,28.104,22.264,37.984v3.424l-28.96,3.624     c-3.408,0.424-6.608,1.408-9.68,2.632l-26.16-18.312C100.736,156.752,60.28,144,18.216,144C8.168,144,0,152.168,0,162.216     c0,6.36,3.392,12.344,8.84,15.624l15.232,9.136C33.896,192.864,40,203.648,40,215.104c0,8.76-3.416,17-9.608,23.192L12.688,256     L30,273.312c6.448,6.456,10,15.024,10,24.144c0,11.44-5.68,22.056-15.792,28.8C19.072,329.672,16,335.4,16,341.576     c0,6.736,3.504,12.728,9.352,16.048c2.856,1.608,5.976,2.424,9.088,2.424c3.256,0,6.512-0.888,9.472-2.664L66.4,343.896     c25.888-15.536,54.056-26.056,83.752-31.4l-2.016,10.104c-2.744,13.664-4.136,27.672-4.136,41.624     c0,9.144-5.088,17.368-13.264,21.464c-6.72,3.376-14.752,3.36-21.472,0l-4.704-2.352C94.952,378.536,84.2,376,73.48,376     c-18.56,0-36.024,7.224-49.152,20.36L4.688,416H32.68c13.808,0,27.36,3.76,39.2,10.856c1.912,1.152,3.952,2.032,5.936,3.032     c-24.384,7.944-45.824,23.688-60.48,45.664l-11.48,17.216l74.512-18.632c18.4-4.584,38.28-1.624,54.496,8.112l9.6,5.76     c8.72,5.232,18.696,7.992,28.832,7.992H176c17.184,0,34.232-5.68,48.008-16c13.736-10.312,34.24-10.312,47.992,0     c13.768,10.32,30.816,16,48,16h2.704c10.144,0,20.112-2.76,28.816-7.984l9.6-5.76c16.224-9.736,36.112-12.696,54.496-8.112     l74.512,18.632l-11.48-17.216c-14.648-21.976-36.088-37.72-60.48-45.664c1.984-1,4.024-1.888,5.936-3.032     C435.96,419.76,449.512,416,463.32,416z M369.968,193.984C401.736,171.752,439.016,160,477.784,160     c1.224,0,2.216,0.992,2.216,2.216c0,0.776-0.416,1.504-1.08,1.904l-15.232,9.136C449.08,182.024,440,198.056,440,215.104     c0,13.032,5.08,25.288,14.296,34.504l6.392,6.392l-6,6C445.216,271.472,440,284.064,440,297.456     c0,16.8,8.344,32.392,22.928,42.112c0.672,0.448,1.072,1.2,1.072,2.008c0,1.232-0.776,1.856-1.232,2.12     c-0.464,0.248-1.368,0.6-2.44-0.032l-22.488-13.488c-24.984-14.992-51.952-25.648-80.328-31.744     c1.544-3.168,2.488-6.68,2.488-10.432v-16h3.16c17.28,0,34.024,5.072,48.408,14.656l8.872-13.312     C403.416,262,383.608,256,363.16,256H360v-19.472l8.68-5.208c8.344-5.008,17.344-8.864,26.752-11.464l-4.248-15.424     c-10.808,2.976-21.152,7.408-30.736,13.168l-4.04,2.424c-1.872-4.184-4.4-7.984-7.528-11.28L369.968,193.984z M139.592,220.032     l-4.04-2.424C116.36,206.088,94.384,200,72,200v16c19.488,0,38.616,5.304,55.32,15.328l8.68,5.2V256h-3.16     c-9.12,0-18.2,1.208-27.008,3.592l4.184,15.44c7.44-2.008,15.12-3.032,22.824-3.032H136v16c0,3.752,0.944,7.264,2.488,10.432     c-28.376,6.104-55.352,16.76-80.328,31.744l-22.488,13.488c-1.08,0.632-1.984,0.28-2.44,0.032     c-0.456-0.256-1.232-0.88-1.232-2.12c0-0.816,0.4-1.56,1.68-2.416C47.656,329.84,56,314.248,56,297.456     c0-13.392-5.216-25.984-14.688-35.456l-6-6l6.392-6.392C50.92,240.392,56,228.136,56,215.104c0-17.04-9.08-33.08-23.688-41.848     L17.08,164.12c-0.664-0.4-1.08-1.128-1.08-1.904c0-1.224,0.992-2.216,2.216-2.216c38.768,0,76.048,11.752,107.816,33.984     l21.088,14.768C143.992,212.04,141.464,215.848,139.592,220.032z M348.168,112c-5.088,12.088-15.672,20.512-28.168,23.088V112     H348.168z M176,135.088c-12.496-2.576-23.08-11-28.168-23.088H176V135.088z M152,64c0-17.648,14.352-32,32-32     c1.888,0,3.872,0.2,6.056,0.624l5.016,0.96l2.984-4.152C204.088,21.016,213.792,16,224,16c6.856,0,13.496,2.272,19.176,6.56     L248,26.2l4.824-3.64C258.504,18.272,265.144,16,272,16c10.208,0,19.912,5.016,25.944,13.424l2.984,4.152l5.016-0.96     C308.128,32.2,310.112,32,312,32c17.648,0,32,14.352,32,32s-14.352,32-32,32c-10.208,0-19.912-5.016-25.944-13.424l-2.984-4.152     l-5.016,0.96C275.872,79.8,273.888,80,272,80c-6.856,0-13.496-2.272-19.176-6.56L248,69.8l-4.824,3.64     C237.496,77.728,230.856,80,224,80c-1.888,0-3.872-0.2-6.056-0.624l-5.016-0.96l-2.984,4.152C203.912,90.984,194.208,96,184,96     C166.352,96,152,81.648,152,64z M192,136v-24.752c10.688-1.84,20.552-7.248,27.832-15.448c10.136,0.968,19.64-1.352,28.168-6.368     c8.536,5.016,18.064,7.336,28.168,6.368c7.28,8.2,17.144,13.608,27.832,15.448V136c0,30.88-25.128,56-56,56S192,166.88,192,136z      M152,236.248c0-12.08,9.04-22.32,21.024-23.816L216,207.064V200.4c9.656,4.816,20.496,7.6,32,7.6c11.504,0,22.344-2.776,32-7.6     v6.656l42.976,5.368C334.96,213.928,344,224.168,344,236.248V288c0,4.416-3.584,8-8,8h-72c-4.416,0-8-3.584-8-8     c0-4.416,3.584-8,8-8h64v-15.64c0-22.256-18.104-40.36-40.36-40.36c-6.232,0-12.48,1.472-18.056,4.264L248,239.056     l-21.584-10.792c-5.584-2.792-11.824-4.264-18.056-4.264c-22.256,0-40.36,18.104-40.36,40.36V280h64c4.416,0,8,3.584,8,8     c0,4.416-3.584,8-8,8h-72c-4.416,0-8-3.584-8-8V236.248z M248,270.128c-4.248-3.808-9.856-6.128-16-6.128h-48     c0.192-13.264,11.048-24,24.36-24c3.768,0,7.528,0.888,10.896,2.576L248,256.944l28.744-14.368     c3.368-1.688,7.128-2.576,10.896-2.576c13.312,0,24.168,10.736,24.36,24h-48C257.856,264,252.248,266.32,248,270.128z M376,440     h0.68h5.632c25.296,0,49.216,9.504,67.408,26.176l-30.224-7.544c-22.48-5.64-46.784-1.992-66.608,9.904l-9.6,5.76     c-6.224,3.736-13.344,5.704-20.584,5.704H320c-13.752,0-27.392-4.544-38.4-12.8c-19.248-14.456-47.96-14.456-67.192,0     C203.392,475.456,189.752,480,176,480h-2.704c-7.24,0-14.36-1.968-20.576-5.704l-9.6-5.76     c-19.832-11.896-44.144-15.544-66.608-9.904l-30.224,7.544C64.472,449.504,88.392,440,113.688,440h5.632H120h24v-16h-24h-0.68     c-13.808,0-27.36-3.76-39.2-10.856c-11.008-6.6-23.24-10.824-35.888-12.416c15.512-10.096,36.488-11.416,53.176-3.08l4.704,2.352     c11.2,5.608,24.576,5.608,35.784,0C151.528,393.168,160,379.472,160,364.224c0-12.896,1.28-25.848,3.816-38.488L166.56,312H232     c6.144,0,11.752-2.32,16-6.128c4.248,3.808,9.856,6.128,16,6.128h65.44l2.744,13.744c2.536,12.632,3.816,25.584,3.816,38.48     c0,15.24,8.472,28.944,22.112,35.776c11.2,5.608,24.576,5.608,35.784,0l4.704-2.352c16.704-8.336,37.672-7.016,53.176,3.08     c-12.648,1.592-24.88,5.816-35.888,12.416C404.04,420.24,390.488,424,376.68,424H376h-24v16H376z"/>
			<path d="M97.832,279.336l-6.392-14.672c-5.488,2.4-10.832,5.312-15.88,8.68l8.872,13.312     C88.696,283.824,93.208,281.352,97.832,279.336z"/>
			<path d="M424,216v-16c-5.384,0-10.832,0.36-16.176,1.064l2.096,15.856C414.576,216.312,419.312,216,424,216z"/>
			<rect x="240" y="160" width="16" height="16"/>
		</g>
	</g>
</g>
<g>
</g>
<g>
</g>
<g>
</g>
<g>
</g>
<g>
</g>
<g>
</g>
<g>
</g>
<g>
</g>
<g>
</g>
<g>
</g>
<g>
</g>
<g>
</g>
<g>
</g>
<g>
</g>
<g>
</g>
</svg>
