<?xml version="1.0" encoding="iso-8859-1"?>
<!-- Generator: Adobe Illustrator 19.0.0, SVG Export Plug-In . SVG Version: 6.00 Build 0)  -->
<svg xmlns="http://www.w3.org/2000/svg" xmlns:xlink="http://www.w3.org/1999/xlink" version="1.1" id="Capa_1" x="0px" y="0px" viewBox="0 0 496.002 496.002" style="enable-background:new 0 0 496.002 496.002;" xml:space="preserve">
<g>
	<g>
		<g>
			<rect x="279.997" y="72.001" width="16" height="16"/>
			<rect x="199.997" y="72.001" width="16" height="16"/>
			<path d="M247.997,163.313l35.312-35.312l-35.312-35.312l-35.312,35.312L247.997,163.313z M260.685,128.001l-12.688,12.688     l-12.688-12.688l12.688-12.688L260.685,128.001z"/>
			<path d="M495.941,187.145l0.056-6.256c0.312-34.952-13.752-69.208-38.576-93.976l-0.76-0.76     c-14.432-14.4-34.488-22.336-54.84-22.144l-1.2,0.016c-27.224,0.432-52.816,10.888-72.616,29.352v-0.536     c0-18.248-4.776-35.984-13.856-51.672l0.192-0.192c8.808-8.808,13.656-20.52,13.656-32.976v-8h-72c-48.52,0-88,39.48-88,88v5.528     c-19.8-18.56-45.44-29.064-72.704-29.504l-1.2-0.016c-20.448-0.328-40.376,7.744-54.8,22.152l-0.752,0.752     c-24.808,24.776-38.856,59.032-38.536,94.192l0.048,6.056c0.16,20.808,6.352,40.96,17.92,58.28     c9.272,13.88,14.168,30.048,14.168,46.736c0,17.688-2.832,35.152-8.432,51.904l-13.768,41.24l37.544-21.424     c8.088-4.616,15.24-10.376,21.544-16.88c6.792,12.432,19.832,20.984,34.968,20.984c12.128,0,24.024-4.168,33.488-11.744     l3.384-2.712l-7.408,19.768l8.336,2.384c1.136,0.32,14.864,4.192,34.2,8.08v112.224h64V391.849c2.68,0.088,5.352,0.152,8,0.152     s5.32-0.064,8-0.152v104.152h64V383.777c13.976-2.808,24.976-5.592,30.44-7.056l84.32,50.232l31.688-52.808l19.6,11.168     l-13.776-41.24c-5.6-16.768-8.44-34.224-8.44-51.896c0-16.688,4.904-32.84,14.184-46.728     C489.581,228.113,495.789,207.961,495.941,187.145z M183.997,88.001c0-39.696,32.304-72,72-72h54.952     c-1.376,5.12-4.072,9.808-7.92,13.656l-9.32,9.32l3.64,5.456c9.584,14.384,14.648,31.128,14.648,48.408v92.208l-16-10.664l-24,16     l-24-16l-24,16l-24-16l-16,10.664V88.001z M199.997,193.617l24,16l24-16l24,16l24-16l32,21.336v-36.344l17.976,5.136     c14.304,4.088,25.088,15.664,28.16,30.224l10.8,51.288l-29.368,5.872l-11.784-49l-7.784,1.872l-7.952-0.88l-7.016,63.16     l-137.32-81.808L199.997,193.617z M388.229,280.913l11.48,54.528c0.192,0.92,0.288,1.872,0.288,2.824     c0,7.568-6.168,13.736-14.176,13.736c-6.52,0-12.192-4.648-13.536-11.344l-12.976-53.96L388.229,280.913z M346.381,301.393     l-10.176-6.072l-0.064-0.184l2.76-24.848L346.381,301.393z M127.493,343.761c-6.648,5.312-14.992,8.24-23.496,8.24     c-11.616,0-21.328-8.304-23.52-19.28c7.184-11.016,12.208-23.464,14.44-36.832c0.776-4.672,1.168-9.44,1.168-14.168v-33.44h-16     v33.44c0,3.856-0.32,7.744-0.952,11.536c-2.136,12.808-7.328,24.624-14.848,34.744h-0.288c0,0.112,0.032,0.216,0.032,0.328     c-6.528,8.688-14.744,16.128-24.48,21.68l-1.184,0.672l0.512-1.536c6.144-18.392,9.256-37.552,9.256-56.968     c0-19.864-5.832-39.096-16.864-55.616c-9.824-14.72-15.088-31.84-15.224-49.504l-0.048-6.304     c-0.28-30.68,12.064-60.76,33.848-82.52l0.752-0.752c11.376-11.36,27.296-17.688,43.224-17.472l1.2,0.016     c24.28,0.384,47.096,10.04,64.264,27.184l8.712,8.696v45.848l-21.584,5.392c-4.232,1.056-8.256,2.616-12.064,4.584     c-5.448-20.528-24.128-35.728-46.352-35.728c-26.472,0-48,21.528-48,48s21.528,48,48,48c5.616,0,10.984-1.024,16-2.8v58.8     c0,13.232,10.768,24,24,24h28.456l-4.6,12.272L127.493,343.761z M167.997,178.249v16.864l-19.672-11.72     c0.672-0.208,1.28-0.552,1.968-0.72L167.997,178.249z M119.997,184.001c0,17.648-14.352,32-32,32s-32-14.352-32-32     s14.352-32,32-32S119.997,166.353,119.997,184.001z M211.997,272.001c6.616,0,12,5.384,12,12c0,6.616-5.384,12-12,12h-84     c-4.408,0-8-3.584-8-8v-48.56l27.792,16.56h-3.792v16H211.997z M223.997,480.001h-32v-16h32V480.001z M223.997,448.001h-32     v-61.272c10.072,1.688,20.952,3.168,32,4.128V448.001z M303.997,480.001h-32v-16h32V480.001z M303.997,448.001h-32v-57.144     c11.048-0.96,21.928-2.44,32-4.128V448.001z M247.997,376.001c-35.528,0-76.184-9.16-93.4-13.488l18.944-50.512h38.456     c6.984,0,13.296-2.664,18.208-6.904l100.632,59.952C310.645,369.665,277.605,376.001,247.997,376.001z M429.237,405.049     L238.813,291.601c0.696-2.432,1.184-4.952,1.184-7.6c0-15.44-12.56-28-28-28h-32.944l-59.816-35.632     c7.816-6.728,13.456-15.896,15.688-26.336l33.072,19.704v1.216l0.96-0.64l153.944,91.712l0.16,0.488l0.416-0.136l28.128,16.76     l5.04,20.968c2.776,13.848,15.032,23.904,29.6,23.904c9.136,0,17.216-4.224,22.672-10.72l36.08,21.488L429.237,405.049z      M415.413,332.657c5.048,7.744,11.2,14.728,18.32,20.768l-18.176-10.824c0.216-1.424,0.44-2.848,0.44-4.336     C415.997,336.385,415.765,334.505,415.413,332.657z M447.821,292.169c0,19.4,3.12,38.568,9.264,56.968l0.512,1.544l-1.2-0.688     c-21.168-12.064-35.616-32.752-39.624-56.744c-0.632-3.824-0.96-7.704-0.96-11.544v-33.44h-16v10.056l-10.032-47.664     c-4.288-20.376-19.392-36.592-39.416-42.312l-22.368-6.376v-46.24l8.536-8.512c17.184-17.144,40.032-26.8,64.336-27.184     l1.2-0.016c16.096-0.304,31.896,6.112,43.272,17.464l0.76,0.76c21.808,21.76,34.16,51.832,33.88,82.72l-0.048,6.08     c-0.136,17.664-5.4,34.792-15.24,49.512C453.661,253.081,447.821,272.313,447.821,292.169z"/>
			<path d="M73.229,120.113c5.256-5.264,12.416-8.4,19.968-8.112l1.336,0.024c11.416,0.176,22.48,3.504,31.984,9.624l8.656-13.464     c-12.024-7.728-25.992-11.936-40.368-12.168l-1.36-0.016c-11.616-0.088-23.24,4.504-31.504,12.776l-0.744,0.728l11.248,11.376     L73.229,120.113z"/>
			
				<rect x="140.058" y="121.701" transform="matrix(0.7074 0.7069 -0.7069 0.7074 134.9527 -66.5638)" width="15.617" height="16.001"/>
			<path d="M347.837,118.529l-11.064,11.04l11.304,11.328l11.064-11.04c10.608-10.592,24.728-16.888,39.76-17.744l-0.904-15.976     C379.045,97.217,361.229,105.169,347.837,118.529z"/>
			<path d="M417.269,98.529l-5.128,15.16c4.168,1.408,7.768,3.608,10.696,6.528l0.664,0.664l11.312-11.312l-0.672-0.672     C429.453,104.217,423.773,100.729,417.269,98.529z"/>
		</g>
	</g>
</g>
<g>
</g>
<g>
</g>
<g>
</g>
<g>
</g>
<g>
</g>
<g>
</g>
<g>
</g>
<g>
</g>
<g>
</g>
<g>
</g>
<g>
</g>
<g>
</g>
<g>
</g>
<g>
</g>
<g>
</g>
</svg>
