<?xml version="1.0" encoding="iso-8859-1"?>
<!-- Generator: Adobe Illustrator 19.0.0, SVG Export Plug-In . SVG Version: 6.00 Build 0)  -->
<svg xmlns="http://www.w3.org/2000/svg" xmlns:xlink="http://www.w3.org/1999/xlink" version="1.1" id="Capa_1" x="0px" y="0px" viewBox="0 0 495.788 495.788" style="enable-background:new 0 0 495.788 495.788;" xml:space="preserve">
<g>
	<g>
		<g>
			<path d="M230.958,223.788h33.872c34.776,0,63.064-28.296,63.064-63.064c0-6.8-1.096-13.504-3.232-19.936l-4.128-12.384     l3.352-6.712c2.624-5.256,4.008-11.128,4.008-16.992v-2.912c0-20.952-17.048-38-38-38c-8.168,0-16.256,2.696-22.8,7.6l-19.2,14.4     l-19.2-14.4c-6.544-4.904-14.632-7.6-22.8-7.6c-20.952,0-38,17.048-38,38v2.912c0,5.856,1.384,11.736,4.008,17l3.352,6.704     l-4.12,12.376c-2.144,6.432-3.24,13.144-3.24,19.944C167.894,195.492,196.182,223.788,230.958,223.788z M186.214,114.548     c-1.512-3.048-2.32-6.448-2.32-9.848v-2.912c0-12.136,9.864-22,22-22c4.728,0,9.416,1.56,13.2,4.4l28.8,21.6l28.8-21.6     c3.792-2.84,8.48-4.4,13.2-4.4c12.136,0,22,9.864,22,22v2.912c0,3.392-0.808,6.8-2.32,9.84l-6.32,12.624l6.224,18.68     c1.6,4.8,2.416,9.808,2.416,14.872c0,25.96-21.112,47.072-47.064,47.072h-33.872c-25.952,0-47.064-21.112-47.064-47.064     c0-5.072,0.816-10.072,2.424-14.88l6.216-18.672L186.214,114.548z"/>
			<rect x="271.894" y="103.788" width="16" height="16"/>
			<rect x="207.894" y="103.788" width="16" height="16"/>
			<path d="M175.894,277.844c0,23.128,18.816,41.944,41.936,41.944c11.208,0,21.744-4.36,29.656-12.28l0.408-0.408l0.4,0.4     c7.92,7.928,18.448,12.288,29.664,12.288c23.12,0,41.936-18.816,41.936-41.944v-38.056h-144V277.844z M191.894,255.788h112     v22.056c0,14.304-11.632,25.944-25.936,25.944c-6.936,0-13.448-2.696-18.344-7.6l-11.72-11.712l-11.728,11.712     c-4.888,4.904-11.4,7.6-18.336,7.6c-14.304,0-25.936-11.64-25.936-25.944V255.788z"/>
			<rect x="271.894" y="271.788" width="16" height="16"/>
			<rect x="207.894" y="271.788" width="16" height="16"/>
			<path d="M397.55,210.132c-11.824-11.832-27.544-18.344-44.28-18.344h-2.456c5.944-9.496,9.08-20.392,9.08-31.624     c0-6.432-1.032-12.776-3.064-18.848l-4.504-13.528l3.488-10.424c2.704-8.144,4.08-16.632,4.08-25.224     c0-30.408-16.896-57.744-44.096-71.344l-18.856-9.432c-30.296-15.152-67.8-15.152-98.096,0l-18.856,9.432     c-27.2,13.6-44.096,40.936-44.096,71.344c0,8.592,1.376,17.072,4.096,25.224l3.472,10.424l-4.504,13.52     c-2.032,6.08-3.064,12.424-3.064,18.856c0,11.232,3.136,22.128,9.08,31.624h-2.456c-16.736,0-32.464,6.512-44.28,18.344     c-11.832,11.832-18.344,27.56-18.344,44.288v81.368v22.952v5.048c0,24.264,19.744,44,44,44c10.624,0,20.384-3.792,28-10.088     v98.088h78.776l15.808-94.8c0.232-1.392,2.608-1.392,2.84,0l15.8,94.8h78.776V397.7c7.616,6.296,17.376,10.088,28,10.088     c24.256,0,44-19.736,44-44v-5.048v-22.952V254.42C415.894,237.692,409.382,221.964,397.55,210.132z M151.894,363.788     c0,15.44-12.56,28-28,28s-28-12.56-28-28v-15.72l16-10.664l24,16l16-10.664V363.788z M399.894,363.788c0,15.44-12.56,28-28,28     s-28-12.56-28-28v-21.056l16,10.664l24-16l16,10.664V363.788z M399.894,328.844l-16-10.664l-24,16l-16-10.664v-43.728h-16v56v28     v116H278.67l-13.576-81.424c-1.4-8.448-8.64-14.576-17.2-14.576c-8.56,0-15.8,6.128-17.2,14.576l-13.576,81.424h-49.224v-116v-28     v-56h-16v43.72l-16,10.664l-24-16l-16,10.664v-74.424c0-12.456,4.848-24.168,13.656-32.976     c8.808-8.8,20.512-13.648,32.968-13.648h32.328l-15.632-23.44c-4.792-7.184-7.32-15.552-7.32-24.184     c0-4.704,0.752-9.344,2.232-13.792l6.2-18.584l-5.168-15.48c-2.16-6.512-3.264-13.296-3.264-20.168     c0-24.312,13.504-46.168,35.248-57.032l18.856-9.432c25.872-12.944,57.904-12.944,83.784,0l18.856,9.432     c21.752,10.872,35.256,32.728,35.256,57.032c0,6.864-1.104,13.656-3.264,20.16l-5.168,15.488l6.192,18.592     c1.488,4.44,2.24,9.072,2.24,13.784c0,8.64-2.528,17-7.32,24.184l-15.632,23.44h32.328c12.456,0,24.168,4.848,32.968,13.656     c8.808,8.808,13.656,20.52,13.656,32.976V328.844z"/>
			<rect x="359.894" y="231.788" width="16" height="24"/>
			<rect x="359.894" y="287.788" width="16" height="24"/>
			<rect x="119.894" y="239.788" width="16" height="24"/>
			<rect x="119.894" y="287.788" width="16" height="24"/>
			<rect x="239.894" y="335.788" width="16" height="24"/>
			<rect x="287.894" y="375.788" width="16" height="24"/>
			<rect x="191.894" y="375.788" width="16" height="24"/>
			<rect x="287.894" y="431.788" width="16" height="24"/>
			<rect x="191.894" y="431.788" width="16" height="24"/>
			<path d="M231.894,183.788c0-8.824,7.176-16,16-16c8.824,0,16,7.176,16,16h16c0-17.648-14.352-32-32-32s-32,14.352-32,32H231.894z     "/>
		</g>
	</g>
</g>
<g>
</g>
<g>
</g>
<g>
</g>
<g>
</g>
<g>
</g>
<g>
</g>
<g>
</g>
<g>
</g>
<g>
</g>
<g>
</g>
<g>
</g>
<g>
</g>
<g>
</g>
<g>
</g>
<g>
</g>
</svg>
