<?xml version="1.0" encoding="iso-8859-1"?>
<!-- Generator: Adobe Illustrator 19.0.0, SVG Export Plug-In . SVG Version: 6.00 Build 0)  -->
<svg xmlns="http://www.w3.org/2000/svg" xmlns:xlink="http://www.w3.org/1999/xlink" version="1.1" id="Capa_1" x="0px" y="0px" viewBox="0 0 496 496" style="enable-background:new 0 0 496 496;" xml:space="preserve">
<g>
	<g>
		<g>
			<rect x="280" y="104" width="16" height="16"/>
			<rect x="200" y="104" width="16" height="16"/>
			<polygon points="208,176 216,176 216,184 232,184 232,176 264,176 264,184 280,184 280,176 288,176 288,160 208,160    "/>
			<path d="M445.656,458.344C445.2,457.888,400,411.72,400,328c0-50.792-4.864-102.256-31.888-130.352     c0.592-22.768,9.656-44.104,25.824-60.28l8.4-8.4c3.656-3.648,5.664-8.496,5.664-13.656C408,104.664,399.336,96,388.688,96     h-11.072l21.336-32H384c-17.376,0-33.704,6.696-46.096,18.832l17.736-59.128c1.688-5.632,0.648-11.568-2.864-16.28     c-4.912-6.608-13.952-9.16-21.616-6.104L297.4,14.824C290.144,9.48,273.632,0,248,0c-25.632,0-42.144,9.48-49.408,14.824     L164.832,1.32c-7.664-3.056-16.704-0.504-21.616,6.104c-3.512,4.712-4.552,10.648-2.864,16.288l17.736,59.128     C145.704,70.696,129.376,64,112,64H97.048l21.336,32h-11.072C96.664,96,88,104.664,88,115.312c0,5.16,2.008,10.008,5.656,13.656     l8.4,8.4c16.168,16.168,25.232,37.504,25.824,60.28C100.864,225.744,96,277.208,96,328c0,83.336-45.208,129.896-45.656,130.344     l-7.248,7.248l8.784,5.272c1.656,0.992,40.552,23.608,124.12,25.008V496h72h72v-0.136c83.56-1.4,122.456-24.008,124.12-25.008     l8.784-5.264L445.656,458.344z M388.688,112c1.824,0,3.312,1.488,3.312,3.312c0,0.872-0.352,1.728-0.968,2.344l-8.4,8.4     c-16.408,16.408-26.576,37.328-29.592,59.944c-7.784-4.448-16.68-7.688-27.184-9.104C332.304,164.664,336,150.768,336,136v-8     h2.664c12.48,0,23.8-6.16,30.712-16H388.688z M348.688,94.624c5.296-5.296,11.576-9.256,18.424-11.712l-3.56,5.344     c-1.856,2.776-3.336,5.792-4.392,8.976C356.216,106.064,347.976,112,338.664,112H336v-4.688L348.688,94.624z M155.68,19.112     c-0.304-1.016,0.112-1.776,0.376-2.136c0.344-0.472,1.552-1.336,2.832-0.8l38.136,15.256l4.864,1.88l3.72-3.608     C206.192,29.144,220.072,16,248,16s41.808,13.144,42.344,13.656l3.728,3.728l43.032-17.208c1.272-0.536,2.48,0.328,2.832,0.8     c0.272,0.36,0.68,1.128,0.376,2.136l-14.736,49.12C316.256,55.968,301.568,48,285.016,48c-10.104,0-19.88,2.96-28.28,8.56     L248,62.384l-8.736-5.824c-8.4-5.6-18.176-8.56-28.28-8.56c-16.552,0-31.248,7.968-40.56,20.224L155.68,19.112z M269.352,221.272     c9.6-2.408,18.584-6.336,26.648-11.608v41.04c-6.664-3.016-15.712-6.368-26.36-8.504c1.472-3.104,2.36-6.536,2.36-10.2     C272,228.128,270.992,224.512,269.352,221.272z M248,208c-39.696,0-72-32.304-72-72V98.984C176,79.696,191.696,64,210.984,64     c6.936,0,13.64,2.032,19.408,5.872L248,81.616l17.608-11.736c5.768-3.848,12.472-5.88,19.408-5.88     C304.304,64,320,79.696,320,98.984V136C320,175.696,287.696,208,248,208z M232,272v-14.584c5-0.872,10.36-1.416,16-1.416     c5.624,0,10.992,0.552,16,1.432V272H232z M264,288v16c0,8.824-7.176,16-16,16c-8.824,0-16-7.176-16-16v-16H264z M240,232     c0-4.408,3.592-8,8-8c4.408,0,8,3.592,8,8s-3.592,8-8,8C243.592,240,240,236.408,240,232z M226.36,242.2     c-10.648,2.136-19.696,5.488-26.36,8.504v-41.04c8.064,5.272,17.048,9.208,26.648,11.608c-1.64,3.24-2.648,6.856-2.648,10.728     C224,235.664,224.888,239.096,226.36,242.2z M147.312,94.624L160,107.312V112h-2.664c-9.312,0-17.552-5.936-20.496-14.768     c-1.056-3.176-2.536-6.192-4.384-8.968l-3.568-5.352C135.736,85.368,142.016,89.328,147.312,94.624z M113.376,126.056l-8.408-8.4     c-0.616-0.616-0.968-1.472-0.968-2.344c0-1.824,1.488-3.312,3.312-3.312h19.312c6.912,9.84,18.232,16,30.712,16H160v8     c0,14.768,3.696,28.664,10.152,40.896c-10.504,1.416-19.4,4.656-27.184,9.104C139.952,163.384,129.784,142.464,113.376,126.056z      M176,479.896c-49.912-0.864-83-9.688-100.592-16.104c50.272-25.28,79.216-58.92,100.592-94.936V479.896z M81.96,442.072     C95.944,418.464,112,380.056,112,328c0-95.464,19.296-133.984,68.336-135.824c1.16,1.4,2.424,2.712,3.664,4.032v82.736     l12.44-8.296c0.104-0.072,5.48-3.584,14.352-7.152c-7.08,13.4-13.504,27.12-19.744,40.504     C166.6,356.448,143.32,406.352,81.96,442.072z M240,480h-48V368h48V480z M304,352h-16v16h16v112h-48V368h16v-16h-80v-12.848     c4.68-9.448,9.136-18.936,13.544-28.384c3.392-7.28,6.888-14.672,10.456-22.032V304c0,17.648,14.352,32,32,32s32-14.352,32-32     v-15.264c3.568,7.36,7.064,14.752,10.456,22.032c4.4,9.448,8.864,18.936,13.544,28.384V352z M304.96,304     c-6.232-13.368-12.648-27.072-19.72-40.456c8.832,3.552,14.224,7.04,14.328,7.112L312,278.952v-82.744     c1.248-1.32,2.504-2.64,3.664-4.032C364.704,194.016,384,232.536,384,328c0,52.056,16.048,90.464,30.04,114.072     C352.68,406.36,329.408,356.456,304.96,304z M320,479.896v-111.04c21.376,36.016,50.32,69.656,100.592,94.936     C402.992,470.208,369.904,479.024,320,479.896z"/>
		</g>
	</g>
</g>
<g>
</g>
<g>
</g>
<g>
</g>
<g>
</g>
<g>
</g>
<g>
</g>
<g>
</g>
<g>
</g>
<g>
</g>
<g>
</g>
<g>
</g>
<g>
</g>
<g>
</g>
<g>
</g>
<g>
</g>
</svg>
